<svg id="visual" viewBox="0 0 1280 720" width="1280" height="720" xmlns="http://www.w3.org/2000/svg" xmlns:xlink="http://www.w3.org/1999/xlink" version="1.1"><rect x="0" y="0" width="1280" height="720" fill="#0C0032"></rect><path d="M0 549L23.7 553.8C47.3 558.7 94.7 568.3 142 574.2C189.3 580 236.7 582 284.2 578.5C331.7 575 379.3 566 426.8 560C474.3 554 521.7 551 569 552.7C616.3 554.3 663.7 560.7 711 563.3C758.3 566 805.7 565 853.2 562.2C900.7 559.3 948.3 554.7 995.8 552.3C1043.3 550 1090.7 550 1138 552C1185.3 554 1232.7 558 1256.3 560L1280 562L1280 721L1256.3 721C1232.7 721 1185.3 721 1138 721C1090.7 721 1043.3 721 995.8 721C948.3 721 900.7 721 853.2 721C805.7 721 758.3 721 711 721C663.7 721 616.3 721 569 721C521.7 721 474.3 721 426.8 721C379.3 721 331.7 721 284.2 721C236.7 721 189.3 721 142 721C94.7 721 47.3 721 23.7 721L0 721Z" fill="#240090"></path><path d="M0 605L23.7 603.2C47.3 601.3 94.7 597.7 142 597.7C189.3 597.7 236.7 601.3 284.2 602.3C331.7 603.3 379.3 601.7 426.8 601.8C474.3 602 521.7 604 569 603C616.3 602 663.7 598 711 595.7C758.3 593.3 805.7 592.7 853.2 587C900.7 581.3 948.3 570.7 995.8 571.7C1043.3 572.7 1090.7 585.3 1138 591.5C1185.3 597.7 1232.7 597.3 1256.3 597.2L1280 597L1280 721L1256.3 721C1232.7 721 1185.3 721 1138 721C1090.7 721 1043.3 721 995.8 721C948.3 721 900.7 721 853.2 721C805.7 721 758.3 721 711 721C663.7 721 616.3 721 569 721C521.7 721 474.3 721 426.8 721C379.3 721 331.7 721 284.2 721C236.7 721 189.3 721 142 721C94.7 721 47.3 721 23.7 721L0 721Z" fill="#220086"></path><path d="M0 628L23.7 622.2C47.3 616.3 94.7 604.7 142 604C189.3 603.3 236.7 613.7 284.2 618.7C331.7 623.7 379.3 623.3 426.8 619.7C474.3 616 521.7 609 569 604.5C616.3 600 663.7 598 711 600.2C758.3 602.3 805.7 608.7 853.2 614.3C900.7 620 948.3 625 995.8 625.3C1043.3 625.7 1090.7 621.3 1138 616.2C1185.3 611 1232.7 605 1256.3 602L1280 599L1280 721L1256.3 721C1232.7 721 1185.3 721 1138 721C1090.7 721 1043.3 721 995.8 721C948.3 721 900.7 721 853.2 721C805.7 721 758.3 721 711 721C663.7 721 616.3 721 569 721C521.7 721 474.3 721 426.8 721C379.3 721 331.7 721 284.2 721C236.7 721 189.3 721 142 721C94.7 721 47.3 721 23.7 721L0 721Z" fill="#20007d"></path><path d="M0 638L23.7 639C47.3 640 94.7 642 142 639.3C189.3 636.7 236.7 629.3 284.2 626.5C331.7 623.7 379.3 625.3 426.8 627.8C474.3 630.3 521.7 633.7 569 637.8C616.3 642 663.7 647 711 649.7C758.3 652.3 805.7 652.7 853.2 653.3C900.7 654 948.3 655 995.8 650.8C1043.3 646.7 1090.7 637.3 1138 630.8C1185.3 624.3 1232.7 620.7 1256.3 618.8L1280 617L1280 721L1256.3 721C1232.7 721 1185.3 721 1138 721C1090.7 721 1043.3 721 995.8 721C948.3 721 900.7 721 853.2 721C805.7 721 758.3 721 711 721C663.7 721 616.3 721 569 721C521.7 721 474.3 721 426.8 721C379.3 721 331.7 721 284.2 721C236.7 721 189.3 721 142 721C94.7 721 47.3 721 23.7 721L0 721Z" fill="#1e0073"></path><path d="M0 677L23.7 675.8C47.3 674.7 94.7 672.3 142 670.7C189.3 669 236.7 668 284.2 666.8C331.7 665.7 379.3 664.3 426.8 663.8C474.3 663.3 521.7 663.7 569 662.7C616.3 661.7 663.7 659.3 711 660.8C758.3 662.3 805.7 667.7 853.2 671C900.7 674.3 948.3 675.7 995.8 674.3C1043.3 673 1090.7 669 1138 667.7C1185.3 666.3 1232.7 667.7 1256.3 668.3L1280 669L1280 721L1256.3 721C1232.7 721 1185.3 721 1138 721C1090.7 721 1043.3 721 995.8 721C948.3 721 900.7 721 853.2 721C805.7 721 758.3 721 711 721C663.7 721 616.3 721 569 721C521.7 721 474.3 721 426.8 721C379.3 721 331.7 721 284.2 721C236.7 721 189.3 721 142 721C94.7 721 47.3 721 23.7 721L0 721Z" fill="#1b006a"></path><path d="M0 699L23.7 696.3C47.3 693.7 94.7 688.3 142 688.8C189.3 689.3 236.7 695.7 284.2 697.2C331.7 698.7 379.3 695.3 426.8 694.2C474.3 693 521.7 694 569 691.7C616.3 689.3 663.7 683.7 711 682.2C758.3 680.7 805.7 683.3 853.2 683.5C900.7 683.7 948.3 681.3 995.8 681.7C1043.3 682 1090.7 685 1138 684.2C1185.3 683.3 1232.7 678.7 1256.3 676.3L1280 674L1280 721L1256.3 721C1232.7 721 1185.3 721 1138 721C1090.7 721 1043.3 721 995.8 721C948.3 721 900.7 721 853.2 721C805.7 721 758.3 721 711 721C663.7 721 616.3 721 569 721C521.7 721 474.3 721 426.8 721C379.3 721 331.7 721 284.2 721C236.7 721 189.3 721 142 721C94.7 721 47.3 721 23.7 721L0 721Z" fill="#190061"></path></svg>