<svg id="visual" viewBox="0 0 1280 720" width="1280" height="720" xmlns="http://www.w3.org/2000/svg" xmlns:xlink="http://www.w3.org/1999/xlink" version="1.1"><path d="M0 476L17.8 478C35.7 480 71.3 484 106.8 481.3C142.3 478.7 177.7 469.3 213.2 461C248.7 452.7 284.3 445.3 320 451.5C355.7 457.7 391.3 477.3 426.8 482.2C462.3 487 497.7 477 533.2 476.8C568.7 476.7 604.3 486.3 640 481.5C675.7 476.7 711.3 457.3 746.8 454.7C782.3 452 817.7 466 853.2 469.5C888.7 473 924.3 466 960 461.3C995.7 456.7 1031.3 454.3 1066.8 453.8C1102.3 453.3 1137.7 454.7 1173.2 460.8C1208.7 467 1244.3 478 1262.2 483.5L1280 489L1280 721L1262.2 721C1244.3 721 1208.7 721 1173.2 721C1137.7 721 1102.3 721 1066.8 721C1031.3 721 995.7 721 960 721C924.3 721 888.7 721 853.2 721C817.7 721 782.3 721 746.8 721C711.3 721 675.7 721 640 721C604.3 721 568.7 721 533.2 721C497.7 721 462.3 721 426.8 721C391.3 721 355.7 721 320 721C284.3 721 248.7 721 213.2 721C177.7 721 142.3 721 106.8 721C71.3 721 35.7 721 17.8 721L0 721Z" fill="#3500d3"></path><path d="M0 486L17.8 491.5C35.7 497 71.3 508 106.8 506.2C142.3 504.3 177.7 489.7 213.2 480.5C248.7 471.3 284.3 467.7 320 466.3C355.7 465 391.3 466 426.8 473.2C462.3 480.3 497.7 493.7 533.2 495C568.7 496.3 604.3 485.7 640 484.5C675.7 483.3 711.3 491.7 746.8 497.8C782.3 504 817.7 508 853.2 508.8C888.7 509.7 924.3 507.3 960 501.5C995.7 495.7 1031.3 486.3 1066.8 479.8C1102.3 473.3 1137.7 469.7 1173.2 467.2C1208.7 464.7 1244.3 463.3 1262.2 462.7L1280 462L1280 721L1262.2 721C1244.3 721 1208.7 721 1173.2 721C1137.7 721 1102.3 721 1066.8 721C1031.3 721 995.7 721 960 721C924.3 721 888.7 721 853.2 721C817.7 721 782.3 721 746.8 721C711.3 721 675.7 721 640 721C604.3 721 568.7 721 533.2 721C497.7 721 462.3 721 426.8 721C391.3 721 355.7 721 320 721C284.3 721 248.7 721 213.2 721C177.7 721 142.3 721 106.8 721C71.3 721 35.7 721 17.8 721L0 721Z" fill="#3200c6"></path><path d="M0 529L17.8 528.5C35.7 528 71.3 527 106.8 527.8C142.3 528.7 177.7 531.3 213.2 530.3C248.7 529.3 284.3 524.7 320 519.7C355.7 514.7 391.3 509.3 426.8 510.2C462.3 511 497.7 518 533.2 524.2C568.7 530.3 604.3 535.7 640 530.7C675.7 525.7 711.3 510.3 746.8 503.8C782.3 497.3 817.7 499.7 853.2 506.8C888.7 514 924.3 526 960 529.2C995.7 532.3 1031.3 526.7 1066.8 523.2C1102.3 519.7 1137.7 518.3 1173.2 514.7C1208.7 511 1244.3 505 1262.2 502L1280 499L1280 721L1262.2 721C1244.3 721 1208.7 721 1173.2 721C1137.7 721 1102.3 721 1066.8 721C1031.3 721 995.7 721 960 721C924.3 721 888.7 721 853.2 721C817.7 721 782.3 721 746.8 721C711.3 721 675.7 721 640 721C604.3 721 568.7 721 533.2 721C497.7 721 462.3 721 426.8 721C391.3 721 355.7 721 320 721C284.3 721 248.7 721 213.2 721C177.7 721 142.3 721 106.8 721C71.3 721 35.7 721 17.8 721L0 721Z" fill="#2f00b8"></path><path d="M0 545L17.8 548C35.7 551 71.3 557 106.8 552.8C142.3 548.7 177.7 534.3 213.2 532.5C248.7 530.7 284.3 541.3 320 548.3C355.7 555.3 391.3 558.7 426.8 558.2C462.3 557.7 497.7 553.3 533.2 553.2C568.7 553 604.3 557 640 551.5C675.7 546 711.3 531 746.8 528.5C782.3 526 817.7 536 853.2 540C888.7 544 924.3 542 960 544.8C995.7 547.7 1031.3 555.3 1066.8 555.8C1102.3 556.3 1137.7 549.7 1173.2 544.5C1208.7 539.3 1244.3 535.7 1262.2 533.8L1280 532L1280 721L1262.2 721C1244.3 721 1208.7 721 1173.2 721C1137.7 721 1102.3 721 1066.8 721C1031.3 721 995.7 721 960 721C924.3 721 888.7 721 853.2 721C817.7 721 782.3 721 746.8 721C711.3 721 675.7 721 640 721C604.3 721 568.7 721 533.2 721C497.7 721 462.3 721 426.8 721C391.3 721 355.7 721 320 721C284.3 721 248.7 721 213.2 721C177.7 721 142.3 721 106.8 721C71.3 721 35.7 721 17.8 721L0 721Z" fill="#2d00ab"></path><path d="M0 559L17.8 556.8C35.7 554.7 71.3 550.3 106.8 554.3C142.3 558.3 177.7 570.7 213.2 575.7C248.7 580.7 284.3 578.3 320 573.8C355.7 569.3 391.3 562.7 426.8 562.3C462.3 562 497.7 568 533.2 568.7C568.7 569.3 604.3 564.7 640 564C675.7 563.3 711.3 566.7 746.8 567C782.3 567.3 817.7 564.7 853.2 562.5C888.7 560.3 924.3 558.7 960 556.3C995.7 554 1031.3 551 1066.8 553.7C1102.3 556.3 1137.7 564.7 1173.2 569.2C1208.7 573.7 1244.3 574.3 1262.2 574.7L1280 575L1280 721L1262.2 721C1244.3 721 1208.7 721 1173.2 721C1137.7 721 1102.3 721 1066.8 721C1031.3 721 995.7 721 960 721C924.3 721 888.7 721 853.2 721C817.7 721 782.3 721 746.8 721C711.3 721 675.7 721 640 721C604.3 721 568.7 721 533.2 721C497.7 721 462.3 721 426.8 721C391.3 721 355.7 721 320 721C284.3 721 248.7 721 213.2 721C177.7 721 142.3 721 106.8 721C71.3 721 35.7 721 17.8 721L0 721Z" fill="#2a009e"></path><path d="M0 593L17.8 591.5C35.7 590 71.3 587 106.8 587.2C142.3 587.3 177.7 590.7 213.2 589.5C248.7 588.3 284.3 582.7 320 584.8C355.7 587 391.3 597 426.8 599.3C462.3 601.7 497.7 596.3 533.2 595.7C568.7 595 604.3 599 640 598.3C675.7 597.7 711.3 592.3 746.8 587.3C782.3 582.3 817.7 577.7 853.2 580.5C888.7 583.3 924.3 593.7 960 597.8C995.7 602 1031.3 600 1066.8 596.8C1102.3 593.7 1137.7 589.3 1173.2 589.2C1208.7 589 1244.3 593 1262.2 595L1280 597L1280 721L1262.2 721C1244.3 721 1208.7 721 1173.2 721C1137.7 721 1102.3 721 1066.8 721C1031.3 721 995.7 721 960 721C924.3 721 888.7 721 853.2 721C817.7 721 782.3 721 746.8 721C711.3 721 675.7 721 640 721C604.3 721 568.7 721 533.2 721C497.7 721 462.3 721 426.8 721C391.3 721 355.7 721 320 721C284.3 721 248.7 721 213.2 721C177.7 721 142.3 721 106.8 721C71.3 721 35.7 721 17.8 721L0 721Z" fill="#260092"></path><path d="M0 613L17.8 615C35.7 617 71.3 621 106.8 623.2C142.3 625.3 177.7 625.7 213.2 624.7C248.7 623.7 284.3 621.3 320 621.7C355.7 622 391.3 625 426.8 626.3C462.3 627.7 497.7 627.3 533.2 623.3C568.7 619.3 604.3 611.7 640 609C675.7 606.3 711.3 608.7 746.8 607.3C782.3 606 817.7 601 853.2 603.5C888.7 606 924.3 616 960 620.7C995.7 625.3 1031.3 624.7 1066.8 624C1102.3 623.3 1137.7 622.7 1173.2 622.7C1208.7 622.7 1244.3 623.3 1262.2 623.7L1280 624L1280 721L1262.2 721C1244.3 721 1208.7 721 1173.2 721C1137.7 721 1102.3 721 1066.8 721C1031.3 721 995.7 721 960 721C924.3 721 888.7 721 853.2 721C817.7 721 782.3 721 746.8 721C711.3 721 675.7 721 640 721C604.3 721 568.7 721 533.2 721C497.7 721 462.3 721 426.8 721C391.3 721 355.7 721 320 721C284.3 721 248.7 721 213.2 721C177.7 721 142.3 721 106.8 721C71.3 721 35.7 721 17.8 721L0 721Z" fill="#230085"></path><path d="M0 646L17.8 646.2C35.7 646.3 71.3 646.7 106.8 644.7C142.3 642.7 177.7 638.3 213.2 638.2C248.7 638 284.3 642 320 640C355.7 638 391.3 630 426.8 628.8C462.3 627.7 497.7 633.3 533.2 633.8C568.7 634.3 604.3 629.7 640 627.5C675.7 625.3 711.3 625.7 746.8 629.3C782.3 633 817.7 640 853.2 643.8C888.7 647.7 924.3 648.3 960 648.5C995.7 648.7 1031.3 648.3 1066.8 644.3C1102.3 640.3 1137.7 632.7 1173.2 630.2C1208.7 627.7 1244.3 630.3 1262.2 631.7L1280 633L1280 721L1262.2 721C1244.3 721 1208.7 721 1173.2 721C1137.7 721 1102.3 721 1066.8 721C1031.3 721 995.7 721 960 721C924.3 721 888.7 721 853.2 721C817.7 721 782.3 721 746.8 721C711.3 721 675.7 721 640 721C604.3 721 568.7 721 533.2 721C497.7 721 462.3 721 426.8 721C391.3 721 355.7 721 320 721C284.3 721 248.7 721 213.2 721C177.7 721 142.3 721 106.8 721C71.3 721 35.7 721 17.8 721L0 721Z" fill="#200079"></path><path d="M0 666L17.8 665.3C35.7 664.7 71.3 663.3 106.8 663.3C142.3 663.3 177.7 664.7 213.2 665.7C248.7 666.7 284.3 667.3 320 668.5C355.7 669.7 391.3 671.3 426.8 668.5C462.3 665.7 497.7 658.3 533.2 655.8C568.7 653.3 604.3 655.7 640 658.3C675.7 661 711.3 664 746.8 662.7C782.3 661.3 817.7 655.7 853.2 653.3C888.7 651 924.3 652 960 655.3C995.7 658.7 1031.3 664.3 1066.8 664.3C1102.3 664.3 1137.7 658.7 1173.2 656.2C1208.7 653.7 1244.3 654.3 1262.2 654.7L1280 655L1280 721L1262.2 721C1244.3 721 1208.7 721 1173.2 721C1137.7 721 1102.3 721 1066.8 721C1031.3 721 995.7 721 960 721C924.3 721 888.7 721 853.2 721C817.7 721 782.3 721 746.8 721C711.3 721 675.7 721 640 721C604.3 721 568.7 721 533.2 721C497.7 721 462.3 721 426.8 721C391.3 721 355.7 721 320 721C284.3 721 248.7 721 213.2 721C177.7 721 142.3 721 106.8 721C71.3 721 35.7 721 17.8 721L0 721Z" fill="#1c006d"></path><path d="M0 689L17.8 689C35.7 689 71.3 689 106.8 687.7C142.3 686.3 177.7 683.7 213.2 684.5C248.7 685.3 284.3 689.7 320 691.8C355.7 694 391.3 694 426.8 694C462.3 694 497.7 694 533.2 691.3C568.7 688.7 604.3 683.3 640 680.5C675.7 677.7 711.3 677.3 746.8 679.2C782.3 681 817.7 685 853.2 686.5C888.7 688 924.3 687 960 686C995.7 685 1031.3 684 1066.8 683.3C1102.3 682.7 1137.7 682.3 1173.2 682C1208.7 681.7 1244.3 681.3 1262.2 681.2L1280 681L1280 721L1262.2 721C1244.3 721 1208.7 721 1173.2 721C1137.7 721 1102.3 721 1066.8 721C1031.3 721 995.7 721 960 721C924.3 721 888.7 721 853.2 721C817.7 721 782.3 721 746.8 721C711.3 721 675.7 721 640 721C604.3 721 568.7 721 533.2 721C497.7 721 462.3 721 426.8 721C391.3 721 355.7 721 320 721C284.3 721 248.7 721 213.2 721C177.7 721 142.3 721 106.8 721C71.3 721 35.7 721 17.8 721L0 721Z" fill="#190061"></path></svg>