<svg id="visual" viewBox="0 0 1280 720" width="1280" height="720" xmlns="http://www.w3.org/2000/svg" xmlns:xlink="http://www.w3.org/1999/xlink" version="1.1"><g stroke-width="1" stroke-linejoin="bevel"><path d="M646 391.4L626 301.6L535.3 368.4Z" fill="#09021c" stroke="#110628"></path><path d="M626 301.6L510.3 316.6L535.3 368.4Z" fill="#070117" stroke="#110628"></path><path d="M785.7 325.6L657 232.7L626 301.6Z" fill="#08021a" stroke="#110628"></path><path d="M626 301.6L562.3 174.7L510.3 316.6Z" fill="#03010e" stroke="#110628"></path><path d="M420.7 446.4L552.3 490.3L535.3 368.4Z" fill="#050113" stroke="#110628"></path><path d="M535.3 368.4L552.3 490.3L646 391.4Z" fill="#03000c" stroke="#110628"></path><path d="M552.3 490.3L676 487.3L646 391.4Z" fill="#08021a" stroke="#110628"></path><path d="M646 391.4L785.7 325.6L626 301.6Z" fill="#070219" stroke="#110628"></path><path d="M676 487.3L757.7 402.4L646 391.4Z" fill="#010005" stroke="#110628"></path><path d="M437.7 230.7L424.7 322.6L510.3 316.6Z" fill="#040111" stroke="#110628"></path><path d="M510.3 316.6L424.7 322.6L535.3 368.4Z" fill="#040111" stroke="#110628"></path><path d="M657 232.7L562.3 174.7L626 301.6Z" fill="#08021a" stroke="#110628"></path><path d="M757.7 402.4L785.7 325.6L646 391.4Z" fill="#010005" stroke="#110628"></path><path d="M424.7 322.6L420.7 446.4L535.3 368.4Z" fill="#050113" stroke="#110628"></path><path d="M562.3 174.7L437.7 230.7L510.3 316.6Z" fill="#050113" stroke="#110628"></path><path d="M757.7 402.4L820.3 345.6L785.7 325.6Z" fill="#070117" stroke="#110628"></path><path d="M775.7 175.7L632 127.9L657 232.7Z" fill="#070219" stroke="#110628"></path><path d="M824.3 439.4L820.3 345.6L757.7 402.4Z" fill="#010005" stroke="#110628"></path><path d="M775.7 175.7L657 232.7L785.7 325.6Z" fill="#040111" stroke="#110628"></path><path d="M657 232.7L632 127.9L562.3 174.7Z" fill="#050113" stroke="#110628"></path><path d="M562.3 174.7L500.3 116.9L437.7 230.7Z" fill="#070117" stroke="#110628"></path><path d="M747.7 638.1L787.7 491.3L676 487.3Z" fill="#070117" stroke="#110628"></path><path d="M676 487.3L787.7 491.3L757.7 402.4Z" fill="#03000c" stroke="#110628"></path><path d="M787.7 491.3L824.3 439.4L757.7 402.4Z" fill="#070219" stroke="#110628"></path><path d="M324 502.3L395.7 510.3L420.7 446.4Z" fill="#060115" stroke="#110628"></path><path d="M420.7 446.4L395.7 510.3L552.3 490.3Z" fill="#03010e" stroke="#110628"></path><path d="M552.3 490.3L600 646.1L676 487.3Z" fill="#010005" stroke="#110628"></path><path d="M317 411.4L420.7 446.4L424.7 322.6Z" fill="#040111" stroke="#110628"></path><path d="M824.3 177.7L775.7 175.7L785.7 325.6Z" fill="#08021a" stroke="#110628"></path><path d="M437.7 230.7L352 279.6L424.7 322.6Z" fill="#050113" stroke="#110628"></path><path d="M632 127.9L500.3 116.9L562.3 174.7Z" fill="#070219" stroke="#110628"></path><path d="M437.7 230.7L285 231.7L352 279.6Z" fill="#060115" stroke="#110628"></path><path d="M437.7 604.1L538.3 611.1L552.3 490.3Z" fill="#040111" stroke="#110628"></path><path d="M352 279.6L317 411.4L424.7 322.6Z" fill="#010005" stroke="#110628"></path><path d="M820.3 345.6L824.3 177.7L785.7 325.6Z" fill="#03010e" stroke="#110628"></path><path d="M775.7 175.7L765.7 101.9L632 127.9Z" fill="#03000c" stroke="#110628"></path><path d="M827.3 145.9L824.3 177.7L923 84.9Z" fill="#03010e" stroke="#110628"></path><path d="M538.3 611.1L600 646.1L552.3 490.3Z" fill="#050113" stroke="#110628"></path><path d="M285 576.1L437.7 604.1L395.7 510.3Z" fill="#040111" stroke="#110628"></path><path d="M395.7 510.3L437.7 604.1L552.3 490.3Z" fill="#070219" stroke="#110628"></path><path d="M565.3 720L619 720L600 646.1Z" fill="#08021a" stroke="#110628"></path><path d="M827.3 145.9L765.7 101.9L775.7 175.7Z" fill="#060115" stroke="#110628"></path><path d="M632 127.9L524.3 0L500.3 116.9Z" fill="#050113" stroke="#110628"></path><path d="M317 411.4L324 502.3L420.7 446.4Z" fill="#020008" stroke="#110628"></path><path d="M987 286.6L824.3 177.7L820.3 345.6Z" fill="#010005" stroke="#110628"></path><path d="M824.3 177.7L827.3 145.9L775.7 175.7Z" fill="#03000c" stroke="#110628"></path><path d="M600 646.1L747.7 638.1L676 487.3Z" fill="#050113" stroke="#110628"></path><path d="M787.7 491.3L892.3 528.3L824.3 439.4Z" fill="#070219" stroke="#110628"></path><path d="M402.7 0L386.7 103.9L500.3 116.9Z" fill="#09021c" stroke="#110628"></path><path d="M500.3 116.9L386.7 103.9L437.7 230.7Z" fill="#070219" stroke="#110628"></path><path d="M352 279.6L178.3 314.6L317 411.4Z" fill="#070117" stroke="#110628"></path><path d="M386.7 103.9L285 231.7L437.7 230.7Z" fill="#08021a" stroke="#110628"></path><path d="M235.3 506.3L285 576.1L324 502.3Z" fill="#03000c" stroke="#110628"></path><path d="M856.3 594.1L892.3 528.3L787.7 491.3Z" fill="#050113" stroke="#110628"></path><path d="M824.3 439.4L965 410.4L820.3 345.6Z" fill="#060115" stroke="#110628"></path><path d="M747.7 638.1L856.3 594.1L787.7 491.3Z" fill="#070219" stroke="#110628"></path><path d="M737.7 0L632 127.9L765.7 101.9Z" fill="#050113" stroke="#110628"></path><path d="M737.7 0L630 0L632 127.9Z" fill="#03010e" stroke="#110628"></path><path d="M630 0L524.3 0L632 127.9Z" fill="#060115" stroke="#110628"></path><path d="M565.3 720L600 646.1L538.3 611.1Z" fill="#050113" stroke="#110628"></path><path d="M600 646.1L619 720L747.7 638.1Z" fill="#060115" stroke="#110628"></path><path d="M747.7 638.1L844.3 720L856.3 594.1Z" fill="#03010e" stroke="#110628"></path><path d="M421.7 720L565.3 720L538.3 611.1Z" fill="#070117" stroke="#110628"></path><path d="M421.7 720L538.3 611.1L437.7 604.1Z" fill="#040111" stroke="#110628"></path><path d="M944 501.3L824.3 439.4L892.3 528.3Z" fill="#03010e" stroke="#110628"></path><path d="M944 501.3L965 410.4L824.3 439.4Z" fill="#09021c" stroke="#110628"></path><path d="M402.7 0L323 96.9L386.7 103.9Z" fill="#070117" stroke="#110628"></path><path d="M386.7 103.9L323 96.9L285 231.7Z" fill="#03010e" stroke="#110628"></path><path d="M923 634.1L944 501.3L892.3 528.3Z" fill="#070117" stroke="#110628"></path><path d="M235.3 506.3L324 502.3L317 411.4Z" fill="#060115" stroke="#110628"></path><path d="M324 502.3L285 576.1L395.7 510.3Z" fill="#03000c" stroke="#110628"></path><path d="M893.3 0L737.7 0L765.7 101.9Z" fill="#050113" stroke="#110628"></path><path d="M203.3 411.4L235.3 506.3L317 411.4Z" fill="#020008" stroke="#110628"></path><path d="M178.3 314.6L203.3 411.4L317 411.4Z" fill="#03010e" stroke="#110628"></path><path d="M178.3 314.6L352 279.6L285 231.7Z" fill="#010005" stroke="#110628"></path><path d="M965 410.4L987 286.6L820.3 345.6Z" fill="#050113" stroke="#110628"></path><path d="M827.3 145.9L893.3 0L765.7 101.9Z" fill="#09021c" stroke="#110628"></path><path d="M282 720L421.7 720L437.7 604.1Z" fill="#09021c" stroke="#110628"></path><path d="M524.3 0L402.7 0L500.3 116.9Z" fill="#09021c" stroke="#110628"></path><path d="M252.3 63.9L225.3 187.7L323 96.9Z" fill="#010005" stroke="#110628"></path><path d="M323 96.9L225.3 187.7L285 231.7Z" fill="#040111" stroke="#110628"></path><path d="M987 286.6L982 222.7L824.3 177.7Z" fill="#060115" stroke="#110628"></path><path d="M619 720L788.7 720L747.7 638.1Z" fill="#010005" stroke="#110628"></path><path d="M856.3 594.1L923 634.1L892.3 528.3Z" fill="#020008" stroke="#110628"></path><path d="M225.3 187.7L178.3 314.6L285 231.7Z" fill="#09021c" stroke="#110628"></path><path d="M982 222.7L923 84.9L824.3 177.7Z" fill="#040111" stroke="#110628"></path><path d="M844.3 720L923 634.1L856.3 594.1Z" fill="#070117" stroke="#110628"></path><path d="M944 501.3L1060.7 409.4L965 410.4Z" fill="#020008" stroke="#110628"></path><path d="M788.7 720L844.3 720L747.7 638.1Z" fill="#03010e" stroke="#110628"></path><path d="M296 0L252.3 63.9L323 96.9Z" fill="#070117" stroke="#110628"></path><path d="M225.3 187.7L100.7 296.6L178.3 314.6Z" fill="#010005" stroke="#110628"></path><path d="M235.3 506.3L241.3 634.1L285 576.1Z" fill="#08021a" stroke="#110628"></path><path d="M285 576.1L282 720L437.7 604.1Z" fill="#010005" stroke="#110628"></path><path d="M140.7 522.3L241.3 634.1L235.3 506.3Z" fill="#010005" stroke="#110628"></path><path d="M140.7 522.3L235.3 506.3L203.3 411.4Z" fill="#070117" stroke="#110628"></path><path d="M100.7 296.6L143.7 407.4L178.3 314.6Z" fill="#050113" stroke="#110628"></path><path d="M178.3 314.6L143.7 407.4L203.3 411.4Z" fill="#03000c" stroke="#110628"></path><path d="M984 0L893.3 0L923 84.9Z" fill="#040111" stroke="#110628"></path><path d="M923 84.9L893.3 0L827.3 145.9Z" fill="#070117" stroke="#110628"></path><path d="M402.7 0L296 0L323 96.9Z" fill="#040111" stroke="#110628"></path><path d="M965 410.4L1060.7 409.4L987 286.6Z" fill="#010005" stroke="#110628"></path><path d="M987 286.6L1060.7 286.6L982 222.7Z" fill="#08021a" stroke="#110628"></path><path d="M982 222.7L1067.7 88.9L923 84.9Z" fill="#09021c" stroke="#110628"></path><path d="M1106.7 521.3L1060.7 409.4L944 501.3Z" fill="#040111" stroke="#110628"></path><path d="M1060.7 409.4L1060.7 286.6L987 286.6Z" fill="#03000c" stroke="#110628"></path><path d="M241.3 634.1L282 720L285 576.1Z" fill="#070219" stroke="#110628"></path><path d="M143.7 407.4L140.7 522.3L203.3 411.4Z" fill="#010005" stroke="#110628"></path><path d="M241.3 634.1L185.3 720L282 720Z" fill="#040111" stroke="#110628"></path><path d="M1146.3 173.7L1064.7 212.7L1060.7 286.6Z" fill="#020008" stroke="#110628"></path><path d="M1060.7 286.6L1064.7 212.7L982 222.7Z" fill="#03010e" stroke="#110628"></path><path d="M74.7 189.7L100.7 296.6L225.3 187.7Z" fill="#070117" stroke="#110628"></path><path d="M143.7 407.4L0 549.3L140.7 522.3Z" fill="#03000c" stroke="#110628"></path><path d="M1067.7 88.9L984 0L923 84.9Z" fill="#08021a" stroke="#110628"></path><path d="M844.3 720L976 720L923 634.1Z" fill="#08021a" stroke="#110628"></path><path d="M1055.7 653.1L1106.7 521.3L944 501.3Z" fill="#070219" stroke="#110628"></path><path d="M205.3 0L141.7 86.9L252.3 63.9Z" fill="#020008" stroke="#110628"></path><path d="M252.3 63.9L141.7 86.9L225.3 187.7Z" fill="#09021c" stroke="#110628"></path><path d="M296 0L205.3 0L252.3 63.9Z" fill="#03000c" stroke="#110628"></path><path d="M1055.7 653.1L944 501.3L923 634.1Z" fill="#050113" stroke="#110628"></path><path d="M1211.3 321.6L1146.3 173.7L1060.7 286.6Z" fill="#070219" stroke="#110628"></path><path d="M127.7 720L147.7 658.1L0 720Z" fill="#070219" stroke="#110628"></path><path d="M140.7 522.3L147.7 658.1L241.3 634.1Z" fill="#010005" stroke="#110628"></path><path d="M1146.3 173.7L1067.7 88.9L1064.7 212.7Z" fill="#09021c" stroke="#110628"></path><path d="M1064.7 212.7L1067.7 88.9L982 222.7Z" fill="#03010e" stroke="#110628"></path><path d="M141.7 86.9L74.7 189.7L225.3 187.7Z" fill="#010005" stroke="#110628"></path><path d="M0 597.1L147.7 658.1L140.7 522.3Z" fill="#03000c" stroke="#110628"></path><path d="M976 720L1055.7 653.1L923 634.1Z" fill="#040111" stroke="#110628"></path><path d="M147.7 658.1L185.3 720L241.3 634.1Z" fill="#020008" stroke="#110628"></path><path d="M1067.7 88.9L1046.7 0L984 0Z" fill="#08021a" stroke="#110628"></path><path d="M1180.3 395.4L1060.7 286.6L1060.7 409.4Z" fill="#08021a" stroke="#110628"></path><path d="M1067.7 88.9L1148.3 0L1046.7 0Z" fill="#03010e" stroke="#110628"></path><path d="M1182.3 586.1L1174.3 525.3L1106.7 521.3Z" fill="#070219" stroke="#110628"></path><path d="M976 720L1050.7 720L1055.7 653.1Z" fill="#060115" stroke="#110628"></path><path d="M1174.3 525.3L1180.3 395.4L1106.7 521.3Z" fill="#08021a" stroke="#110628"></path><path d="M1106.7 521.3L1180.3 395.4L1060.7 409.4Z" fill="#010005" stroke="#110628"></path><path d="M0 375.4L143.7 407.4L100.7 296.6Z" fill="#09021c" stroke="#110628"></path><path d="M147.7 658.1L127.7 720L185.3 720Z" fill="#03000c" stroke="#110628"></path><path d="M0 312.6L0 375.4L100.7 296.6Z" fill="#070219" stroke="#110628"></path><path d="M74.7 189.7L0 312.6L100.7 296.6Z" fill="#010005" stroke="#110628"></path><path d="M1182.3 586.1L1106.7 521.3L1055.7 653.1Z" fill="#03000c" stroke="#110628"></path><path d="M205.3 0L99.7 0L141.7 86.9Z" fill="#09021c" stroke="#110628"></path><path d="M0 62.9L0 188.7L74.7 189.7Z" fill="#050113" stroke="#110628"></path><path d="M74.7 189.7L0 188.7L0 312.6Z" fill="#03010e" stroke="#110628"></path><path d="M1280 345.6L1211.3 321.6L1180.3 395.4Z" fill="#020008" stroke="#110628"></path><path d="M1180.3 395.4L1211.3 321.6L1060.7 286.6Z" fill="#050113" stroke="#110628"></path><path d="M0 62.9L74.7 189.7L141.7 86.9Z" fill="#020008" stroke="#110628"></path><path d="M0 375.4L0 549.3L143.7 407.4Z" fill="#09021c" stroke="#110628"></path><path d="M1147.3 720L1182.3 586.1L1055.7 653.1Z" fill="#050113" stroke="#110628"></path><path d="M1280 405.4L1280 345.6L1180.3 395.4Z" fill="#08021a" stroke="#110628"></path><path d="M0 549.3L0 597.1L140.7 522.3Z" fill="#040111" stroke="#110628"></path><path d="M1280 191.7L1181.3 83.9L1146.3 173.7Z" fill="#070219" stroke="#110628"></path><path d="M1146.3 173.7L1181.3 83.9L1067.7 88.9Z" fill="#03000c" stroke="#110628"></path><path d="M1181.3 83.9L1148.3 0L1067.7 88.9Z" fill="#010005" stroke="#110628"></path><path d="M1050.7 720L1147.3 720L1055.7 653.1Z" fill="#08021a" stroke="#110628"></path><path d="M99.7 0L0 62.9L141.7 86.9Z" fill="#050113" stroke="#110628"></path><path d="M1280 405.4L1180.3 395.4L1174.3 525.3Z" fill="#010005" stroke="#110628"></path><path d="M1211.3 321.6L1280 191.7L1146.3 173.7Z" fill="#020008" stroke="#110628"></path><path d="M1280 405.4L1174.3 525.3L1280 548.3Z" fill="#010005" stroke="#110628"></path><path d="M1280 548.3L1174.3 525.3L1182.3 586.1Z" fill="#010005" stroke="#110628"></path><path d="M99.7 0L0 0L0 62.9Z" fill="#010005" stroke="#110628"></path><path d="M0 597.1L0 720L147.7 658.1Z" fill="#08021a" stroke="#110628"></path><path d="M1280 345.6L1280 191.7L1211.3 321.6Z" fill="#08021a" stroke="#110628"></path><path d="M1181.3 83.9L1280 0L1148.3 0Z" fill="#070219" stroke="#110628"></path><path d="M1280 585.1L1280 548.3L1182.3 586.1Z" fill="#09021c" stroke="#110628"></path><path d="M1280 720L1280 585.1L1182.3 586.1Z" fill="#070219" stroke="#110628"></path><path d="M1280 191.7L1280 74.9L1181.3 83.9Z" fill="#09021c" stroke="#110628"></path><path d="M1280 74.9L1280 0L1181.3 83.9Z" fill="#020008" stroke="#110628"></path><path d="M1147.3 720L1280 720L1182.3 586.1Z" fill="#010005" stroke="#110628"></path></g></svg>