<svg id="visual" viewBox="0 0 1280 720" width="1280" height="720" xmlns="http://www.w3.org/2000/svg" xmlns:xlink="http://www.w3.org/1999/xlink" version="1.1"><g stroke-width="1" stroke-linejoin="bevel"><path d="M711.2 346.6L628.8 444.4L730.2 432.4Z" fill="#070217" stroke="#070217"></path><path d="M628.8 444.4L695.2 547.3L730.2 432.4Z" fill="#070217" stroke="#070217"></path><path d="M619.8 502.3L695.2 547.3L628.8 444.4Z" fill="#140e2d" stroke="#140e2d"></path><path d="M711.2 346.6L585.8 267.6L628.8 444.4Z" fill="#1f1443" stroke="#1f1443"></path><path d="M628.8 444.4L509.5 400.4L619.8 502.3Z" fill="#110924" stroke="#110924"></path><path d="M585.8 267.6L509.5 400.4L628.8 444.4Z" fill="#0b041b" stroke="#0b041b"></path><path d="M821.5 496.3L833.5 449.4L730.2 432.4Z" fill="#1c133f" stroke="#1c133f"></path><path d="M730.2 432.4L833.5 449.4L711.2 346.6Z" fill="#140e2d" stroke="#140e2d"></path><path d="M833.5 449.4L787.5 275.6L711.2 346.6Z" fill="#1f1443" stroke="#1f1443"></path><path d="M711.2 346.6L685.2 217.7L585.8 267.6Z" fill="#1f1443" stroke="#1f1443"></path><path d="M695.2 547.3L821.5 496.3L730.2 432.4Z" fill="#0b041b" stroke="#0b041b"></path><path d="M787.5 275.6L685.2 217.7L711.2 346.6Z" fill="#140e2d" stroke="#140e2d"></path><path d="M585.8 267.6L470.5 351.6L509.5 400.4Z" fill="#1c133f" stroke="#1c133f"></path><path d="M337.1 449.4L479.5 508.3L509.5 400.4Z" fill="#1f1443" stroke="#1f1443"></path><path d="M509.5 400.4L479.5 508.3L619.8 502.3Z" fill="#161031" stroke="#161031"></path><path d="M663.2 720L743.2 632.1L695.2 547.3Z" fill="#1f1443" stroke="#1f1443"></path><path d="M685.2 217.7L597.8 184.7L585.8 267.6Z" fill="#140e2d" stroke="#140e2d"></path><path d="M585.8 267.6L483.5 227.7L470.5 351.6Z" fill="#110924" stroke="#110924"></path><path d="M549.8 666.1L695.2 547.3L619.8 502.3Z" fill="#181136" stroke="#181136"></path><path d="M695.2 547.3L743.2 632.1L821.5 496.3Z" fill="#1f1443" stroke="#1f1443"></path><path d="M787.5 275.6L747.2 152.9L685.2 217.7Z" fill="#130c29" stroke="#130c29"></path><path d="M685.2 217.7L591.8 114.9L597.8 184.7Z" fill="#110924" stroke="#110924"></path><path d="M597.8 184.7L483.5 227.7L585.8 267.6Z" fill="#130c29" stroke="#130c29"></path><path d="M889.9 557.3L833.5 449.4L821.5 496.3Z" fill="#181136" stroke="#181136"></path><path d="M889.9 557.3L935.9 413.4L833.5 449.4Z" fill="#140e2d" stroke="#140e2d"></path><path d="M833.5 449.4L935.9 413.4L787.5 275.6Z" fill="#1f1443" stroke="#1f1443"></path><path d="M787.5 275.6L862.5 167.7L747.2 152.9Z" fill="#181136" stroke="#181136"></path><path d="M842.5 633.1L889.9 557.3L821.5 496.3Z" fill="#110924" stroke="#110924"></path><path d="M963.9 323.6L890.9 226.7L787.5 275.6Z" fill="#110924" stroke="#110924"></path><path d="M743.2 632.1L842.5 633.1L821.5 496.3Z" fill="#110924" stroke="#110924"></path><path d="M842.5 633.1L898.9 582.1L889.9 557.3Z" fill="#070217" stroke="#070217"></path><path d="M1002.3 562.3L1029.3 423.4L935.9 413.4Z" fill="#0b041b" stroke="#0b041b"></path><path d="M479.5 508.3L503.5 635.1L619.8 502.3Z" fill="#1c133f" stroke="#1c133f"></path><path d="M743.2 632.1L771.5 720L842.5 633.1Z" fill="#110924" stroke="#110924"></path><path d="M503.5 635.1L549.8 666.1L619.8 502.3Z" fill="#0e0720" stroke="#0e0720"></path><path d="M747.2 152.9L591.8 114.9L685.2 217.7Z" fill="#110924" stroke="#110924"></path><path d="M597.8 184.7L453.5 152.9L483.5 227.7Z" fill="#1c133f" stroke="#1c133f"></path><path d="M890.9 226.7L862.5 167.7L787.5 275.6Z" fill="#1c133f" stroke="#1c133f"></path><path d="M747.2 152.9L659.2 0L591.8 114.9Z" fill="#110924" stroke="#110924"></path><path d="M1029.3 423.4L963.9 323.6L935.9 413.4Z" fill="#1c133f" stroke="#1c133f"></path><path d="M935.9 413.4L963.9 323.6L787.5 275.6Z" fill="#1c133f" stroke="#1c133f"></path><path d="M890.9 226.7L965.9 105.9L862.5 167.7Z" fill="#1f1443" stroke="#1f1443"></path><path d="M549.8 666.1L663.2 720L695.2 547.3Z" fill="#1c133f" stroke="#1c133f"></path><path d="M448.5 720L593.8 720L549.8 666.1Z" fill="#130c29" stroke="#130c29"></path><path d="M549.8 666.1L593.8 720L663.2 720Z" fill="#1c133f" stroke="#1c133f"></path><path d="M591.8 114.9L453.5 152.9L597.8 184.7Z" fill="#140e2d" stroke="#140e2d"></path><path d="M300.1 319.6L337.1 449.4L470.5 351.6Z" fill="#0b041b" stroke="#0b041b"></path><path d="M470.5 351.6L337.1 449.4L509.5 400.4Z" fill="#181136" stroke="#181136"></path><path d="M1043.3 580.1L1002.3 562.3L947.9 720Z" fill="#130c29" stroke="#130c29"></path><path d="M663.2 720L771.5 720L743.2 632.1Z" fill="#1c133f" stroke="#1c133f"></path><path d="M300.1 319.6L470.5 351.6L483.5 227.7Z" fill="#0b041b" stroke="#0b041b"></path><path d="M479.5 508.3L348.1 523.3L503.5 635.1Z" fill="#110924" stroke="#110924"></path><path d="M337.1 449.4L348.1 523.3L479.5 508.3Z" fill="#181136" stroke="#181136"></path><path d="M503.5 635.1L448.5 720L549.8 666.1Z" fill="#161031" stroke="#161031"></path><path d="M1002.3 562.3L935.9 413.4L889.9 557.3Z" fill="#070217" stroke="#070217"></path><path d="M965.9 105.9L826.5 64.9L862.5 167.7Z" fill="#070217" stroke="#070217"></path><path d="M898.9 582.1L1002.3 562.3L889.9 557.3Z" fill="#181136" stroke="#181136"></path><path d="M1002.3 562.3L898.9 582.1L947.9 720Z" fill="#1f1443" stroke="#1f1443"></path><path d="M1056.3 230.7L890.9 226.7L963.9 323.6Z" fill="#161031" stroke="#161031"></path><path d="M862.5 167.7L826.5 64.9L747.2 152.9Z" fill="#070217" stroke="#070217"></path><path d="M333.1 154.7L300.1 319.6L483.5 227.7Z" fill="#0e0720" stroke="#0e0720"></path><path d="M216.7 466.3L317.1 576.1L348.1 523.3Z" fill="#140e2d" stroke="#140e2d"></path><path d="M317.1 576.1L448.5 720L503.5 635.1Z" fill="#1c133f" stroke="#1c133f"></path><path d="M216.7 466.3L348.1 523.3L337.1 449.4Z" fill="#110924" stroke="#110924"></path><path d="M348.1 523.3L317.1 576.1L503.5 635.1Z" fill="#1f1443" stroke="#1f1443"></path><path d="M800.5 0L659.2 0L747.2 152.9Z" fill="#140e2d" stroke="#140e2d"></path><path d="M591.8 114.9L431.5 0L453.5 152.9Z" fill="#161031" stroke="#161031"></path><path d="M659.2 0L619.8 0L591.8 114.9Z" fill="#1c133f" stroke="#1c133f"></path><path d="M1029.3 423.4L1056.3 257.6L963.9 323.6Z" fill="#1c133f" stroke="#1c133f"></path><path d="M1002.3 562.3L1043.3 580.1L1029.3 423.4Z" fill="#140e2d" stroke="#140e2d"></path><path d="M1029.3 423.4L1154.6 335.6L1056.3 257.6Z" fill="#070217" stroke="#070217"></path><path d="M947.9 720L898.9 582.1L842.5 633.1Z" fill="#110924" stroke="#110924"></path><path d="M1056.3 230.7L965.9 105.9L890.9 226.7Z" fill="#1c133f" stroke="#1c133f"></path><path d="M826.5 64.9L800.5 0L747.2 152.9Z" fill="#1f1443" stroke="#1f1443"></path><path d="M1056.3 257.6L1056.3 230.7L963.9 323.6Z" fill="#1f1443" stroke="#1f1443"></path><path d="M956.9 0L800.5 0L826.5 64.9Z" fill="#1a123a" stroke="#1a123a"></path><path d="M366.1 64.9L333.1 154.7L453.5 152.9Z" fill="#140e2d" stroke="#140e2d"></path><path d="M453.5 152.9L333.1 154.7L483.5 227.7Z" fill="#070217" stroke="#070217"></path><path d="M771.5 720L947.9 720L842.5 633.1Z" fill="#1f1443" stroke="#1f1443"></path><path d="M253.7 338.6L252.7 371.4L300.1 319.6Z" fill="#161031" stroke="#161031"></path><path d="M300.1 319.6L252.7 371.4L337.1 449.4Z" fill="#0b041b" stroke="#0b041b"></path><path d="M265.7 253.7L253.7 338.6L300.1 319.6Z" fill="#1c133f" stroke="#1c133f"></path><path d="M333.1 154.7L265.7 253.7L300.1 319.6Z" fill="#181136" stroke="#181136"></path><path d="M431.5 0L366.1 64.9L453.5 152.9Z" fill="#0e0720" stroke="#0e0720"></path><path d="M333.1 154.7L281.7 105.9L265.7 253.7Z" fill="#0e0720" stroke="#0e0720"></path><path d="M1056.3 230.7L1002.3 77.9L965.9 105.9Z" fill="#1f1443" stroke="#1f1443"></path><path d="M965.9 105.9L956.9 0L826.5 64.9Z" fill="#1a123a" stroke="#1a123a"></path><path d="M252.7 371.4L216.7 466.3L337.1 449.4Z" fill="#130c29" stroke="#130c29"></path><path d="M317.1 576.1L308.1 720L448.5 720Z" fill="#130c29" stroke="#130c29"></path><path d="M151.4 405.4L216.7 466.3L252.7 371.4Z" fill="#140e2d" stroke="#140e2d"></path><path d="M151.4 405.4L252.7 371.4L253.7 338.6Z" fill="#140e2d" stroke="#140e2d"></path><path d="M619.8 0L431.5 0L591.8 114.9Z" fill="#181136" stroke="#181136"></path><path d="M1202.6 615.1L1151.6 472.3L1043.3 580.1Z" fill="#0e0720" stroke="#0e0720"></path><path d="M1043.3 580.1L1151.6 472.3L1029.3 423.4Z" fill="#070217" stroke="#070217"></path><path d="M1056.3 257.6L1137.6 218.7L1056.3 230.7Z" fill="#1a123a" stroke="#1a123a"></path><path d="M1056.3 230.7L1147.6 66.9L1002.3 77.9Z" fill="#110924" stroke="#110924"></path><path d="M1151.6 472.3L1154.6 335.6L1029.3 423.4Z" fill="#140e2d" stroke="#140e2d"></path><path d="M189.7 657.1L308.1 720L317.1 576.1Z" fill="#161031" stroke="#161031"></path><path d="M1092.3 0L956.9 0L1002.3 77.9Z" fill="#1a123a" stroke="#1a123a"></path><path d="M1002.3 77.9L956.9 0L965.9 105.9Z" fill="#1c133f" stroke="#1c133f"></path><path d="M316.1 0L281.7 105.9L366.1 64.9Z" fill="#1c133f" stroke="#1c133f"></path><path d="M366.1 64.9L281.7 105.9L333.1 154.7Z" fill="#161031" stroke="#161031"></path><path d="M116.4 327.6L151.4 405.4L253.7 338.6Z" fill="#0e0720" stroke="#0e0720"></path><path d="M1154.6 335.6L1137.6 218.7L1056.3 257.6Z" fill="#0e0720" stroke="#0e0720"></path><path d="M947.9 720L1080.3 720L1043.3 580.1Z" fill="#1f1443" stroke="#1f1443"></path><path d="M1202.6 615.1L1190.6 452.4L1151.6 472.3Z" fill="#161031" stroke="#161031"></path><path d="M1151.6 472.3L1190.6 452.4L1154.6 335.6Z" fill="#0e0720" stroke="#0e0720"></path><path d="M1280 138.9L1147.6 66.9L1137.6 218.7Z" fill="#161031" stroke="#161031"></path><path d="M116.4 327.6L253.7 338.6L265.7 253.7Z" fill="#070217" stroke="#070217"></path><path d="M134.4 576.1L189.7 657.1L317.1 576.1Z" fill="#130c29" stroke="#130c29"></path><path d="M431.5 0L316.1 0L366.1 64.9Z" fill="#1c133f" stroke="#1c133f"></path><path d="M84.4 187.7L116.4 327.6L265.7 253.7Z" fill="#1f1443" stroke="#1f1443"></path><path d="M134.4 576.1L317.1 576.1L216.7 466.3Z" fill="#161031" stroke="#161031"></path><path d="M84.4 187.7L265.7 253.7L281.7 105.9Z" fill="#0e0720" stroke="#0e0720"></path><path d="M66.4 520.3L134.4 576.1L216.7 466.3Z" fill="#110924" stroke="#110924"></path><path d="M66.4 520.3L216.7 466.3L151.4 405.4Z" fill="#0e0720" stroke="#0e0720"></path><path d="M1080.3 720L1202.6 615.1L1043.3 580.1Z" fill="#1f1443" stroke="#1f1443"></path><path d="M189.7 657.1L202.7 720L308.1 720Z" fill="#1f1443" stroke="#1f1443"></path><path d="M127.4 720L202.7 720L189.7 657.1Z" fill="#0b041b" stroke="#0b041b"></path><path d="M1147.6 66.9L1092.3 0L1002.3 77.9Z" fill="#0b041b" stroke="#0b041b"></path><path d="M1147.6 66.9L1056.3 230.7L1137.6 218.7Z" fill="#0e0720" stroke="#0e0720"></path><path d="M1280 292.6L1137.6 218.7L1154.6 335.6Z" fill="#0e0720" stroke="#0e0720"></path><path d="M316.1 0L233.7 0L281.7 105.9Z" fill="#1f1443" stroke="#1f1443"></path><path d="M1280 478.3L1280 435.4L1190.6 452.4Z" fill="#0b041b" stroke="#0b041b"></path><path d="M1190.6 452.4L1280 435.4L1154.6 335.6Z" fill="#140e2d" stroke="#140e2d"></path><path d="M1202.6 615.1L1280 478.3L1190.6 452.4Z" fill="#0e0720" stroke="#0e0720"></path><path d="M1280 435.4L1280 292.6L1154.6 335.6Z" fill="#1a123a" stroke="#1a123a"></path><path d="M0 401.4L66.4 520.3L151.4 405.4Z" fill="#110924" stroke="#110924"></path><path d="M134.4 576.1L127.4 720L189.7 657.1Z" fill="#1f1443" stroke="#1f1443"></path><path d="M1080.3 720L1210.6 720L1202.6 615.1Z" fill="#161031" stroke="#161031"></path><path d="M1202.6 615.1L1280 615.1L1280 478.3Z" fill="#181136" stroke="#181136"></path><path d="M1280 0L1155.6 0L1147.6 66.9Z" fill="#0b041b" stroke="#0b041b"></path><path d="M1147.6 66.9L1155.6 0L1092.3 0Z" fill="#0e0720" stroke="#0e0720"></path><path d="M72.4 135.9L84.4 187.7L281.7 105.9Z" fill="#070217" stroke="#070217"></path><path d="M116.4 327.6L0 401.4L151.4 405.4Z" fill="#161031" stroke="#161031"></path><path d="M0 607.1L127.4 720L134.4 576.1Z" fill="#0e0720" stroke="#0e0720"></path><path d="M1280 292.6L1280 192.7L1137.6 218.7Z" fill="#110924" stroke="#110924"></path><path d="M1210.6 720L1280 615.1L1202.6 615.1Z" fill="#110924" stroke="#110924"></path><path d="M233.7 0L72.4 135.9L281.7 105.9Z" fill="#1f1443" stroke="#1f1443"></path><path d="M0 266.6L0 401.4L116.4 327.6Z" fill="#0b041b" stroke="#0b041b"></path><path d="M1280 192.7L1280 138.9L1137.6 218.7Z" fill="#181136" stroke="#181136"></path><path d="M0 266.6L116.4 327.6L84.4 187.7Z" fill="#1c133f" stroke="#1c133f"></path><path d="M66.4 520.3L0 607.1L134.4 576.1Z" fill="#181136" stroke="#181136"></path><path d="M1210.6 720L1280 720L1280 615.1Z" fill="#1c133f" stroke="#1c133f"></path><path d="M0 249.7L0 266.6L84.4 187.7Z" fill="#0b041b" stroke="#0b041b"></path><path d="M72.4 135.9L0 249.7L84.4 187.7Z" fill="#161031" stroke="#161031"></path><path d="M0 401.4L0 561.3L66.4 520.3Z" fill="#0e0720" stroke="#0e0720"></path><path d="M0 561.3L0 607.1L66.4 520.3Z" fill="#1f1443" stroke="#1f1443"></path><path d="M233.7 0L85.4 0L72.4 135.9Z" fill="#130c29" stroke="#130c29"></path><path d="M72.4 135.9L0 89.9L0 249.7Z" fill="#0e0720" stroke="#0e0720"></path><path d="M1280 138.9L1280 0L1147.6 66.9Z" fill="#070217" stroke="#070217"></path><path d="M85.4 0L0 89.9L72.4 135.9Z" fill="#0b041b" stroke="#0b041b"></path><path d="M0 607.1L0 720L127.4 720Z" fill="#130c29" stroke="#130c29"></path><path d="M85.4 0L0 0L0 89.9Z" fill="#110924" stroke="#110924"></path></g></svg>