<svg id="visual" viewBox="0 0 1280 720" width="1280" height="720" xmlns="http://www.w3.org/2000/svg" xmlns:xlink="http://www.w3.org/1999/xlink" version="1.1"><g stroke-width="1" stroke-linejoin="bevel"><path d="M614.8 308.6L681.2 300.6L604.8 190.7Z" fill="#130747" stroke="#130747"></path><path d="M681.2 300.6L719.2 215.7L604.8 190.7Z" fill="#190061" stroke="#190061"></path><path d="M719.2 215.7L682.2 132.9L604.8 190.7Z" fill="#12062e" stroke="#12062e"></path><path d="M823.5 270.6L795.5 219.7L719.2 215.7Z" fill="#140650" stroke="#140650"></path><path d="M719.2 215.7L818.5 96.9L682.2 132.9Z" fill="#120736" stroke="#120736"></path><path d="M579.8 73.9L464.5 223.7L604.8 190.7Z" fill="#130747" stroke="#130747"></path><path d="M604.8 190.7L464.5 223.7L614.8 308.6Z" fill="#12062e" stroke="#12062e"></path><path d="M573.8 438.4L678.2 426.4L614.8 308.6Z" fill="#130747" stroke="#130747"></path><path d="M614.8 308.6L678.2 426.4L681.2 300.6Z" fill="#190061" stroke="#190061"></path><path d="M681.2 300.6L823.5 270.6L719.2 215.7Z" fill="#160358" stroke="#160358"></path><path d="M682.2 132.9L579.8 73.9L604.8 190.7Z" fill="#130747" stroke="#130747"></path><path d="M822.5 375.4L823.5 270.6L681.2 300.6Z" fill="#12062e" stroke="#12062e"></path><path d="M441.5 340.6L573.8 438.4L614.8 308.6Z" fill="#0d031d" stroke="#0d031d"></path><path d="M464.5 223.7L441.5 340.6L614.8 308.6Z" fill="#140650" stroke="#140650"></path><path d="M678.2 426.4L822.5 375.4L681.2 300.6Z" fill="#140650" stroke="#140650"></path><path d="M795.5 219.7L818.5 96.9L719.2 215.7Z" fill="#130747" stroke="#130747"></path><path d="M682.2 132.9L700.2 0L579.8 73.9Z" fill="#0d031d" stroke="#0d031d"></path><path d="M903.9 241.7L818.5 96.9L795.5 219.7Z" fill="#12083f" stroke="#12083f"></path><path d="M441.5 340.6L464.5 422.4L573.8 438.4Z" fill="#120736" stroke="#120736"></path><path d="M818.5 96.9L700.2 0L682.2 132.9Z" fill="#110425" stroke="#110425"></path><path d="M678.2 426.4L738.2 483.3L822.5 375.4Z" fill="#190061" stroke="#190061"></path><path d="M581.8 517.3L738.2 483.3L678.2 426.4Z" fill="#160358" stroke="#160358"></path><path d="M581.8 517.3L678.2 426.4L573.8 438.4Z" fill="#190061" stroke="#190061"></path><path d="M700.2 0L573.8 0L579.8 73.9Z" fill="#120736" stroke="#120736"></path><path d="M579.8 73.9L455.5 61.9L464.5 223.7Z" fill="#190061" stroke="#190061"></path><path d="M573.8 0L455.5 61.9L579.8 73.9Z" fill="#12083f" stroke="#12083f"></path><path d="M464.5 223.7L344.1 271.6L441.5 340.6Z" fill="#190061" stroke="#190061"></path><path d="M907.9 277.6L903.9 241.7L823.5 270.6Z" fill="#080115" stroke="#080115"></path><path d="M823.5 270.6L903.9 241.7L795.5 219.7Z" fill="#160358" stroke="#160358"></path><path d="M943.9 432.4L907.9 277.6L822.5 375.4Z" fill="#120736" stroke="#120736"></path><path d="M822.5 375.4L907.9 277.6L823.5 270.6Z" fill="#160358" stroke="#160358"></path><path d="M476.5 521.3L581.8 517.3L573.8 438.4Z" fill="#140650" stroke="#140650"></path><path d="M388.1 93.9L368.1 194.7L464.5 223.7Z" fill="#12062e" stroke="#12062e"></path><path d="M441.5 340.6L343.1 390.4L464.5 422.4Z" fill="#12083f" stroke="#12083f"></path><path d="M455.5 61.9L388.1 93.9L464.5 223.7Z" fill="#130747" stroke="#130747"></path><path d="M367.1 0L388.1 93.9L455.5 61.9Z" fill="#190061" stroke="#190061"></path><path d="M268.7 295.6L344.1 271.6L214.7 168.7Z" fill="#12062e" stroke="#12062e"></path><path d="M368.1 194.7L344.1 271.6L464.5 223.7Z" fill="#12083f" stroke="#12083f"></path><path d="M914.9 0L814.5 0L818.5 96.9Z" fill="#110425" stroke="#110425"></path><path d="M818.5 96.9L814.5 0L700.2 0Z" fill="#0d031d" stroke="#0d031d"></path><path d="M1039.3 212.7L916.9 96.9L903.9 241.7Z" fill="#130747" stroke="#130747"></path><path d="M903.9 241.7L916.9 96.9L818.5 96.9Z" fill="#020008" stroke="#020008"></path><path d="M573.8 0L445.5 0L455.5 61.9Z" fill="#080115" stroke="#080115"></path><path d="M370.1 498.3L476.5 521.3L464.5 422.4Z" fill="#140650" stroke="#140650"></path><path d="M464.5 422.4L476.5 521.3L573.8 438.4Z" fill="#080115" stroke="#080115"></path><path d="M344.1 271.6L343.1 390.4L441.5 340.6Z" fill="#12062e" stroke="#12062e"></path><path d="M846.5 546.3L943.9 432.4L822.5 375.4Z" fill="#160358" stroke="#160358"></path><path d="M907.9 277.6L1039.3 212.7L903.9 241.7Z" fill="#140650" stroke="#140650"></path><path d="M669.2 618.1L846.5 546.3L738.2 483.3Z" fill="#160358" stroke="#160358"></path><path d="M738.2 483.3L846.5 546.3L822.5 375.4Z" fill="#130747" stroke="#130747"></path><path d="M669.2 618.1L738.2 483.3L581.8 517.3Z" fill="#12062e" stroke="#12062e"></path><path d="M916.9 96.9L914.9 0L818.5 96.9Z" fill="#140650" stroke="#140650"></path><path d="M1006.3 0L914.9 0L916.9 96.9Z" fill="#120736" stroke="#120736"></path><path d="M445.5 0L367.1 0L455.5 61.9Z" fill="#120736" stroke="#120736"></path><path d="M214.7 168.7L344.1 271.6L368.1 194.7Z" fill="#120736" stroke="#120736"></path><path d="M343.1 390.4L370.1 498.3L464.5 422.4Z" fill="#080115" stroke="#080115"></path><path d="M361.1 622.1L501.5 590.1L476.5 521.3Z" fill="#12083f" stroke="#12083f"></path><path d="M476.5 521.3L501.5 590.1L581.8 517.3Z" fill="#130747" stroke="#130747"></path><path d="M615.8 655.1L669.2 618.1L581.8 517.3Z" fill="#130747" stroke="#130747"></path><path d="M344.1 271.6L268.7 295.6L343.1 390.4Z" fill="#12083f" stroke="#12083f"></path><path d="M343.1 390.4L270.7 417.4L370.1 498.3Z" fill="#120736" stroke="#120736"></path><path d="M263.7 68.9L368.1 194.7L388.1 93.9Z" fill="#020008" stroke="#020008"></path><path d="M669.2 618.1L854.5 581.1L846.5 546.3Z" fill="#020008" stroke="#020008"></path><path d="M846.5 546.3L960.9 497.3L943.9 432.4Z" fill="#0d031d" stroke="#0d031d"></path><path d="M1048.3 311.6L1039.3 212.7L907.9 277.6Z" fill="#0d031d" stroke="#0d031d"></path><path d="M854.5 581.1L960.9 497.3L846.5 546.3Z" fill="#110425" stroke="#110425"></path><path d="M943.9 432.4L1048.3 311.6L907.9 277.6Z" fill="#0d031d" stroke="#0d031d"></path><path d="M268.7 295.6L270.7 417.4L343.1 390.4Z" fill="#190061" stroke="#190061"></path><path d="M501.5 590.1L615.8 655.1L581.8 517.3Z" fill="#140650" stroke="#140650"></path><path d="M806.5 720L929.9 622.1L854.5 581.1Z" fill="#120736" stroke="#120736"></path><path d="M1068.3 377.4L1048.3 311.6L943.9 432.4Z" fill="#12062e" stroke="#12062e"></path><path d="M367.1 0L263.7 68.9L388.1 93.9Z" fill="#12062e" stroke="#12062e"></path><path d="M123.4 395.4L233.7 479.3L270.7 417.4Z" fill="#020008" stroke="#020008"></path><path d="M263.7 68.9L214.7 168.7L368.1 194.7Z" fill="#0d031d" stroke="#0d031d"></path><path d="M1070.3 121.9L1006.3 0L916.9 96.9Z" fill="#160358" stroke="#160358"></path><path d="M1029.3 474.3L1068.3 377.4L943.9 432.4Z" fill="#12062e" stroke="#12062e"></path><path d="M1147.6 172.7L1070.3 121.9L1039.3 212.7Z" fill="#140650" stroke="#140650"></path><path d="M1039.3 212.7L1070.3 121.9L916.9 96.9Z" fill="#080115" stroke="#080115"></path><path d="M1147.6 172.7L1039.3 212.7L1048.3 311.6Z" fill="#120736" stroke="#120736"></path><path d="M960.9 497.3L1029.3 474.3L943.9 432.4Z" fill="#0d031d" stroke="#0d031d"></path><path d="M1073.3 582.1L1029.3 474.3L960.9 497.3Z" fill="#12062e" stroke="#12062e"></path><path d="M367.1 0L249.7 0L263.7 68.9Z" fill="#12083f" stroke="#12083f"></path><path d="M263.7 68.9L133.4 0L214.7 168.7Z" fill="#110425" stroke="#110425"></path><path d="M370.1 498.3L361.1 622.1L476.5 521.3Z" fill="#020008" stroke="#020008"></path><path d="M490.5 720L604.8 720L615.8 655.1Z" fill="#0d031d" stroke="#0d031d"></path><path d="M248.7 605.1L361.1 622.1L370.1 498.3Z" fill="#12083f" stroke="#12083f"></path><path d="M123.4 395.4L270.7 417.4L268.7 295.6Z" fill="#080115" stroke="#080115"></path><path d="M270.7 417.4L233.7 479.3L370.1 498.3Z" fill="#12062e" stroke="#12062e"></path><path d="M806.5 720L854.5 581.1L669.2 618.1Z" fill="#12083f" stroke="#12083f"></path><path d="M854.5 581.1L929.9 622.1L960.9 497.3Z" fill="#12062e" stroke="#12062e"></path><path d="M490.5 720L615.8 655.1L501.5 590.1Z" fill="#120736" stroke="#120736"></path><path d="M615.8 655.1L683.2 720L669.2 618.1Z" fill="#130747" stroke="#130747"></path><path d="M604.8 720L683.2 720L615.8 655.1Z" fill="#160358" stroke="#160358"></path><path d="M361.1 622.1L490.5 720L501.5 590.1Z" fill="#130747" stroke="#130747"></path><path d="M81.4 127.9L144.4 224.7L214.7 168.7Z" fill="#110425" stroke="#110425"></path><path d="M214.7 168.7L144.4 224.7L268.7 295.6Z" fill="#020008" stroke="#020008"></path><path d="M683.2 720L806.5 720L669.2 618.1Z" fill="#080115" stroke="#080115"></path><path d="M1198.6 299.6L1147.6 172.7L1048.3 311.6Z" fill="#12083f" stroke="#12083f"></path><path d="M1070.3 121.9L1162.6 0L1006.3 0Z" fill="#140650" stroke="#140650"></path><path d="M233.7 479.3L248.7 605.1L370.1 498.3Z" fill="#160358" stroke="#160358"></path><path d="M361.1 622.1L388.1 720L490.5 720Z" fill="#080115" stroke="#080115"></path><path d="M125.4 526.3L248.7 605.1L233.7 479.3Z" fill="#140650" stroke="#140650"></path><path d="M243.7 720L388.1 720L361.1 622.1Z" fill="#110425" stroke="#110425"></path><path d="M144.4 224.7L123.4 395.4L268.7 295.6Z" fill="#12083f" stroke="#12083f"></path><path d="M1147.6 172.7L1163.6 110.9L1070.3 121.9Z" fill="#020008" stroke="#020008"></path><path d="M1015.3 720L1073.3 582.1L929.9 622.1Z" fill="#12062e" stroke="#12062e"></path><path d="M929.9 622.1L1073.3 582.1L960.9 497.3Z" fill="#12083f" stroke="#12083f"></path><path d="M1029.3 474.3L1167.6 440.4L1068.3 377.4Z" fill="#020008" stroke="#020008"></path><path d="M1068.3 377.4L1198.6 299.6L1048.3 311.6Z" fill="#140650" stroke="#140650"></path><path d="M1147.6 172.7L1280 170.7L1163.6 110.9Z" fill="#020008" stroke="#020008"></path><path d="M144.4 224.7L85.4 275.6L123.4 395.4Z" fill="#0d031d" stroke="#0d031d"></path><path d="M0 188.7L85.4 275.6L144.4 224.7Z" fill="#080115" stroke="#080115"></path><path d="M1167.6 440.4L1198.6 299.6L1068.3 377.4Z" fill="#190061" stroke="#190061"></path><path d="M1073.3 582.1L1167.6 440.4L1029.3 474.3Z" fill="#110425" stroke="#110425"></path><path d="M806.5 720L942.9 720L929.9 622.1Z" fill="#120736" stroke="#120736"></path><path d="M249.7 0L133.4 0L263.7 68.9Z" fill="#12062e" stroke="#12062e"></path><path d="M133.4 0L81.4 127.9L214.7 168.7Z" fill="#130747" stroke="#130747"></path><path d="M1280 69.9L1162.6 0L1163.6 110.9Z" fill="#120736" stroke="#120736"></path><path d="M1163.6 110.9L1162.6 0L1070.3 121.9Z" fill="#160358" stroke="#160358"></path><path d="M0 505.3L125.4 526.3L123.4 395.4Z" fill="#110425" stroke="#110425"></path><path d="M123.4 395.4L125.4 526.3L233.7 479.3Z" fill="#12062e" stroke="#12062e"></path><path d="M248.7 605.1L243.7 720L361.1 622.1Z" fill="#110425" stroke="#110425"></path><path d="M942.9 720L1015.3 720L929.9 622.1Z" fill="#080115" stroke="#080115"></path><path d="M1073.3 582.1L1202.6 484.3L1167.6 440.4Z" fill="#080115" stroke="#080115"></path><path d="M1280 427.4L1280 307.6L1198.6 299.6Z" fill="#110425" stroke="#110425"></path><path d="M1138.6 649.1L1202.6 484.3L1073.3 582.1Z" fill="#190061" stroke="#190061"></path><path d="M125.4 720L243.7 720L248.7 605.1Z" fill="#160358" stroke="#160358"></path><path d="M1015.3 720L1138.6 649.1L1073.3 582.1Z" fill="#0d031d" stroke="#0d031d"></path><path d="M1280 427.4L1167.6 440.4L1202.6 484.3Z" fill="#130747" stroke="#130747"></path><path d="M1280 427.4L1198.6 299.6L1167.6 440.4Z" fill="#12083f" stroke="#12083f"></path><path d="M1198.6 299.6L1280 170.7L1147.6 172.7Z" fill="#140650" stroke="#140650"></path><path d="M1280 307.6L1280 170.7L1198.6 299.6Z" fill="#12062e" stroke="#12062e"></path><path d="M0 86.9L0 188.7L81.4 127.9Z" fill="#120736" stroke="#120736"></path><path d="M81.4 127.9L0 188.7L144.4 224.7Z" fill="#160358" stroke="#160358"></path><path d="M85.4 275.6L0 339.6L123.4 395.4Z" fill="#130747" stroke="#130747"></path><path d="M0 188.7L0 339.6L85.4 275.6Z" fill="#140650" stroke="#140650"></path><path d="M125.4 526.3L84.4 624.1L248.7 605.1Z" fill="#140650" stroke="#140650"></path><path d="M0 339.6L0 406.4L123.4 395.4Z" fill="#12062e" stroke="#12062e"></path><path d="M133.4 0L0 86.9L81.4 127.9Z" fill="#130747" stroke="#130747"></path><path d="M1280 170.7L1280 69.9L1163.6 110.9Z" fill="#160358" stroke="#160358"></path><path d="M1280 499.3L1280 427.4L1202.6 484.3Z" fill="#12062e" stroke="#12062e"></path><path d="M0 596.1L84.4 624.1L125.4 526.3Z" fill="#080115" stroke="#080115"></path><path d="M1280 69.9L1280 0L1162.6 0Z" fill="#12083f" stroke="#12083f"></path><path d="M1280 647.1L1280 499.3L1202.6 484.3Z" fill="#12083f" stroke="#12083f"></path><path d="M133.4 0L0 0L0 86.9Z" fill="#12062e" stroke="#12062e"></path><path d="M0 406.4L0 505.3L123.4 395.4Z" fill="#140650" stroke="#140650"></path><path d="M0 720L125.4 720L84.4 624.1Z" fill="#12062e" stroke="#12062e"></path><path d="M84.4 624.1L125.4 720L248.7 605.1Z" fill="#0d031d" stroke="#0d031d"></path><path d="M1015.3 720L1157.6 720L1138.6 649.1Z" fill="#190061" stroke="#190061"></path><path d="M1138.6 649.1L1280 647.1L1202.6 484.3Z" fill="#0d031d" stroke="#0d031d"></path><path d="M0 505.3L0 596.1L125.4 526.3Z" fill="#140650" stroke="#140650"></path><path d="M1157.6 720L1280 647.1L1138.6 649.1Z" fill="#160358" stroke="#160358"></path><path d="M1157.6 720L1280 720L1280 647.1Z" fill="#12083f" stroke="#12083f"></path><path d="M0 596.1L0 720L84.4 624.1Z" fill="#130747" stroke="#130747"></path></g></svg>