<svg xmlns="http://www.w3.org/2000/svg" version="1.1" xmlns:xlink="http://www.w3.org/1999/xlink" xmlns:svgjs="http://svgjs.dev/svgjs" viewBox="0 0 800 800" width="800" height="800"><g stroke-width="0.5" stroke="#190061" fill="none"><rect width="88.88888888888889" height="50" x="0" y="0"></rect><rect width="88.88888888888889" height="50" x="88.88888888888889" y="0"></rect><rect width="88.88888888888889" height="50" x="177.77777777777777" y="0"></rect><rect width="88.88888888888889" height="50" x="266.66666666666663" y="0"></rect><rect width="88.88888888888889" height="50" x="355.55555555555554" y="0"></rect><rect width="88.88888888888889" height="50" x="444.44444444444446" y="0"></rect><rect width="88.88888888888889" height="50" x="533.3333333333334" y="0"></rect><rect width="88.88888888888889" height="50" x="622.2222222222223" y="0"></rect><rect width="88.88888888888889" height="50" x="711.1111111111112" y="0"></rect><rect width="88.88888888888889" height="50" x="800.0000000000001" y="0"></rect><rect width="88.88888888888889" height="50" x="0" y="50"></rect><rect width="88.88888888888889" height="50" x="88.88888888888889" y="50"></rect><rect width="88.88888888888889" height="50" x="177.77777777777777" y="50"></rect><rect width="88.88888888888889" height="50" x="266.66666666666663" y="50"></rect><rect width="88.88888888888889" height="50" x="355.55555555555554" y="50"></rect><rect width="88.88888888888889" height="50" x="444.44444444444446" y="50"></rect><rect width="88.88888888888889" height="50" x="533.3333333333334" y="50"></rect><rect width="88.88888888888889" height="50" x="622.2222222222223" y="50"></rect><rect width="88.88888888888889" height="50" x="711.1111111111112" y="50"></rect><rect width="88.88888888888889" height="50" x="800.0000000000001" y="50"></rect><rect width="88.88888888888889" height="50" x="0" y="100"></rect><rect width="88.88888888888889" height="50" x="88.88888888888889" y="100"></rect><rect width="88.88888888888889" height="50" x="177.77777777777777" y="100"></rect><rect width="88.88888888888889" height="50" x="266.66666666666663" y="100"></rect><rect width="88.88888888888889" height="50" x="355.55555555555554" y="100"></rect><rect width="88.88888888888889" height="50" x="444.44444444444446" y="100"></rect><rect width="88.88888888888889" height="50" x="533.3333333333334" y="100"></rect><rect width="88.88888888888889" height="50" x="622.2222222222223" y="100"></rect><rect width="88.88888888888889" height="50" x="711.1111111111112" y="100"></rect><rect width="88.88888888888889" height="50" x="800.0000000000001" y="100"></rect><rect width="88.88888888888889" height="50" x="0" y="150"></rect><rect width="88.88888888888889" height="50" x="88.88888888888889" y="150"></rect><rect width="88.88888888888889" height="50" x="177.77777777777777" y="150"></rect><rect width="88.88888888888889" height="50" x="266.66666666666663" y="150"></rect><rect width="88.88888888888889" height="50" x="355.55555555555554" y="150"></rect><rect width="88.88888888888889" height="50" x="444.44444444444446" y="150"></rect><rect width="88.88888888888889" height="50" x="533.3333333333334" y="150"></rect><rect width="88.88888888888889" height="50" x="622.2222222222223" y="150"></rect><rect width="88.88888888888889" height="50" x="711.1111111111112" y="150"></rect><rect width="88.88888888888889" height="50" x="800.0000000000001" y="150"></rect><rect width="88.88888888888889" height="50" x="0" y="200"></rect><rect width="88.88888888888889" height="50" x="88.88888888888889" y="200"></rect><rect width="88.88888888888889" height="50" x="177.77777777777777" y="200"></rect><rect width="88.88888888888889" height="50" x="266.66666666666663" y="200"></rect><rect width="88.88888888888889" height="50" x="355.55555555555554" y="200"></rect><rect width="88.88888888888889" height="50" x="444.44444444444446" y="200"></rect><rect width="88.88888888888889" height="50" x="533.3333333333334" y="200"></rect><rect width="88.88888888888889" height="50" x="622.2222222222223" y="200"></rect><rect width="88.88888888888889" height="50" x="711.1111111111112" y="200"></rect><rect width="88.88888888888889" height="50" x="800.0000000000001" y="200"></rect><rect width="88.88888888888889" height="50" x="0" y="250"></rect><rect width="88.88888888888889" height="50" x="88.88888888888889" y="250"></rect><rect width="88.88888888888889" height="50" x="177.77777777777777" y="250"></rect><rect width="88.88888888888889" height="50" x="266.66666666666663" y="250"></rect><rect width="88.88888888888889" height="50" x="355.55555555555554" y="250"></rect><rect width="88.88888888888889" height="50" x="444.44444444444446" y="250"></rect><rect width="88.88888888888889" height="50" x="533.3333333333334" y="250"></rect><rect width="88.88888888888889" height="50" x="622.2222222222223" y="250"></rect><rect width="88.88888888888889" height="50" x="711.1111111111112" y="250"></rect><rect width="88.88888888888889" height="50" x="800.0000000000001" y="250"></rect><rect width="88.88888888888889" height="50" x="0" y="300"></rect><rect width="88.88888888888889" height="50" x="88.88888888888889" y="300"></rect><rect width="88.88888888888889" height="50" x="177.77777777777777" y="300"></rect><rect width="88.88888888888889" height="50" x="266.66666666666663" y="300"></rect><rect width="88.88888888888889" height="50" x="355.55555555555554" y="300"></rect><rect width="88.88888888888889" height="50" x="444.44444444444446" y="300"></rect><rect width="88.88888888888889" height="50" x="533.3333333333334" y="300"></rect><rect width="88.88888888888889" height="50" x="622.2222222222223" y="300"></rect><rect width="88.88888888888889" height="50" x="711.1111111111112" y="300"></rect><rect width="88.88888888888889" height="50" x="800.0000000000001" y="300"></rect><rect width="88.88888888888889" height="50" x="0" y="350"></rect><rect width="88.88888888888889" height="50" x="88.88888888888889" y="350"></rect><rect width="88.88888888888889" height="50" x="177.77777777777777" y="350"></rect><rect width="88.88888888888889" height="50" x="266.66666666666663" y="350"></rect><rect width="88.88888888888889" height="50" x="355.55555555555554" y="350"></rect><rect width="88.88888888888889" height="50" x="444.44444444444446" y="350"></rect><rect width="88.88888888888889" height="50" x="533.3333333333334" y="350"></rect><rect width="88.88888888888889" height="50" x="622.2222222222223" y="350"></rect><rect width="88.88888888888889" height="50" x="711.1111111111112" y="350"></rect><rect width="88.88888888888889" height="50" x="800.0000000000001" y="350"></rect><rect width="88.88888888888889" height="50" x="0" y="400"></rect><rect width="88.88888888888889" height="50" x="88.88888888888889" y="400"></rect><rect width="88.88888888888889" height="50" x="177.77777777777777" y="400"></rect><rect width="88.88888888888889" height="50" x="266.66666666666663" y="400"></rect><rect width="88.88888888888889" height="50" x="355.55555555555554" y="400"></rect><rect width="88.88888888888889" height="50" x="444.44444444444446" y="400"></rect><rect width="88.88888888888889" height="50" x="533.3333333333334" y="400"></rect><rect width="88.88888888888889" height="50" x="622.2222222222223" y="400"></rect><rect width="88.88888888888889" height="50" x="711.1111111111112" y="400"></rect><rect width="88.88888888888889" height="50" x="800.0000000000001" y="400"></rect><rect width="88.88888888888889" height="50" x="0" y="450"></rect><rect width="88.88888888888889" height="50" x="88.88888888888889" y="450"></rect><rect width="88.88888888888889" height="50" x="177.77777777777777" y="450"></rect><rect width="88.88888888888889" height="50" x="266.66666666666663" y="450"></rect><rect width="88.88888888888889" height="50" x="355.55555555555554" y="450"></rect><rect width="88.88888888888889" height="50" x="444.44444444444446" y="450"></rect><rect width="88.88888888888889" height="50" x="533.3333333333334" y="450"></rect><rect width="88.88888888888889" height="50" x="622.2222222222223" y="450"></rect><rect width="88.88888888888889" height="50" x="711.1111111111112" y="450"></rect><rect width="88.88888888888889" height="50" x="800.0000000000001" y="450"></rect><rect width="88.88888888888889" height="50" x="0" y="500"></rect><rect width="88.88888888888889" height="50" x="88.88888888888889" y="500"></rect><rect width="88.88888888888889" height="50" x="177.77777777777777" y="500"></rect><rect width="88.88888888888889" height="50" x="266.66666666666663" y="500"></rect><rect width="88.88888888888889" height="50" x="355.55555555555554" y="500"></rect><rect width="88.88888888888889" height="50" x="444.44444444444446" y="500"></rect><rect width="88.88888888888889" height="50" x="533.3333333333334" y="500"></rect><rect width="88.88888888888889" height="50" x="622.2222222222223" y="500"></rect><rect width="88.88888888888889" height="50" x="711.1111111111112" y="500"></rect><rect width="88.88888888888889" height="50" x="800.0000000000001" y="500"></rect><rect width="88.88888888888889" height="50" x="0" y="550"></rect><rect width="88.88888888888889" height="50" x="88.88888888888889" y="550"></rect><rect width="88.88888888888889" height="50" x="177.77777777777777" y="550"></rect><rect width="88.88888888888889" height="50" x="266.66666666666663" y="550"></rect><rect width="88.88888888888889" height="50" x="355.55555555555554" y="550"></rect><rect width="88.88888888888889" height="50" x="444.44444444444446" y="550"></rect><rect width="88.88888888888889" height="50" x="533.3333333333334" y="550"></rect><rect width="88.88888888888889" height="50" x="622.2222222222223" y="550"></rect><rect width="88.88888888888889" height="50" x="711.1111111111112" y="550"></rect><rect width="88.88888888888889" height="50" x="800.0000000000001" y="550"></rect><rect width="88.88888888888889" height="50" x="0" y="600"></rect><rect width="88.88888888888889" height="50" x="88.88888888888889" y="600"></rect><rect width="88.88888888888889" height="50" x="177.77777777777777" y="600"></rect><rect width="88.88888888888889" height="50" x="266.66666666666663" y="600"></rect><rect width="88.88888888888889" height="50" x="355.55555555555554" y="600"></rect><rect width="88.88888888888889" height="50" x="444.44444444444446" y="600"></rect><rect width="88.88888888888889" height="50" x="533.3333333333334" y="600"></rect><rect width="88.88888888888889" height="50" x="622.2222222222223" y="600"></rect><rect width="88.88888888888889" height="50" x="711.1111111111112" y="600"></rect><rect width="88.88888888888889" height="50" x="800.0000000000001" y="600"></rect><rect width="88.88888888888889" height="50" x="0" y="650"></rect><rect width="88.88888888888889" height="50" x="88.88888888888889" y="650"></rect><rect width="88.88888888888889" height="50" x="177.77777777777777" y="650"></rect><rect width="88.88888888888889" height="50" x="266.66666666666663" y="650"></rect><rect width="88.88888888888889" height="50" x="355.55555555555554" y="650"></rect><rect width="88.88888888888889" height="50" x="444.44444444444446" y="650"></rect><rect width="88.88888888888889" height="50" x="533.3333333333334" y="650"></rect><rect width="88.88888888888889" height="50" x="622.2222222222223" y="650"></rect><rect width="88.88888888888889" height="50" x="711.1111111111112" y="650"></rect><rect width="88.88888888888889" height="50" x="800.0000000000001" y="650"></rect><rect width="88.88888888888889" height="50" x="0" y="700"></rect><rect width="88.88888888888889" height="50" x="88.88888888888889" y="700"></rect><rect width="88.88888888888889" height="50" x="177.77777777777777" y="700"></rect><rect width="88.88888888888889" height="50" x="266.66666666666663" y="700"></rect><rect width="88.88888888888889" height="50" x="355.55555555555554" y="700"></rect><rect width="88.88888888888889" height="50" x="444.44444444444446" y="700"></rect><rect width="88.88888888888889" height="50" x="533.3333333333334" y="700"></rect><rect width="88.88888888888889" height="50" x="622.2222222222223" y="700"></rect><rect width="88.88888888888889" height="50" x="711.1111111111112" y="700"></rect><rect width="88.88888888888889" height="50" x="800.0000000000001" y="700"></rect><rect width="88.88888888888889" height="50" x="0" y="750"></rect><rect width="88.88888888888889" height="50" x="88.88888888888889" y="750"></rect><rect width="88.88888888888889" height="50" x="177.77777777777777" y="750"></rect><rect width="88.88888888888889" height="50" x="266.66666666666663" y="750"></rect><rect width="88.88888888888889" height="50" x="355.55555555555554" y="750"></rect><rect width="88.88888888888889" height="50" x="444.44444444444446" y="750"></rect><rect width="88.88888888888889" height="50" x="533.3333333333334" y="750"></rect><rect width="88.88888888888889" height="50" x="622.2222222222223" y="750"></rect><rect width="88.88888888888889" height="50" x="711.1111111111112" y="750"></rect><rect width="88.88888888888889" height="50" x="800.0000000000001" y="750"></rect><rect width="88.88888888888889" height="50" x="0" y="800"></rect><rect width="88.88888888888889" height="50" x="88.88888888888889" y="800"></rect><rect width="88.88888888888889" height="50" x="177.77777777777777" y="800"></rect><rect width="88.88888888888889" height="50" x="266.66666666666663" y="800"></rect><rect width="88.88888888888889" height="50" x="355.55555555555554" y="800"></rect><rect width="88.88888888888889" height="50" x="444.44444444444446" y="800"></rect><rect width="88.88888888888889" height="50" x="533.3333333333334" y="800"></rect><rect width="88.88888888888889" height="50" x="622.2222222222223" y="800"></rect><rect width="88.88888888888889" height="50" x="711.1111111111112" y="800"></rect><rect width="88.88888888888889" height="50" x="800.0000000000001" y="800"></rect></g></svg>