<svg xmlns="http://www.w3.org/2000/svg" version="1.1" xmlns:xlink="http://www.w3.org/1999/xlink" xmlns:svgjs="http://svgjs.dev/svgjs" width="1500" height="1500" viewBox="0 0 1500 1500"><rect width="1500" height="1500" fill="#ffffff"></rect><g transform="matrix(0.6666666666666666,0,0,0.6666666666666666,249.39393939393938,438.5856950067477)"><svg viewBox="0 0 396 247" data-background-color="#0c0032" preserveAspectRatio="xMidYMid meet" height="935" width="1500" xmlns="http://www.w3.org/2000/svg" xmlns:xlink="http://www.w3.org/1999/xlink"><g id="tight-bounds" transform="matrix(1,0,0,1,0.2400000000000091,-0.09999999999999432)"><svg viewBox="0 0 395.52 247.2" height="247.2" width="395.52"><g><svg></svg></g><g><svg viewBox="0 0 395.52 247.2" height="247.2" width="395.52"><g transform="matrix(1,0,0,1,75.54432000000001,80.12650785770336)"><svg viewBox="0 0 244.43135999999996 86.94698428459328" height="86.94698428459328" width="244.43135999999996"><g><svg viewBox="0 0 414.5971219005986 147.47685993453933" height="86.94698428459328" width="244.43135999999996"><g transform="matrix(1,0,0,1,0,9.03523680608157)"><svg viewBox="0 0 244.43136 129.4063863223762" height="129.4063863223762" width="244.43136"><g id="textblocktransform"><svg viewBox="0 0 244.43136 129.4063863223762" height="129.4063863223762" width="244.43136" id="textblock"><g><svg viewBox="0 0 244.43136 106.3853673485946" height="106.3853673485946" width="244.43136"><g transform="matrix(1,0,0,1,0,0)"><svg width="244.43136" viewBox="2.3000000000000034 -34.15 172.54999999999998 72.1" height="106.3853673485946" data-palette-color="#ffffff"><svg></svg><svg></svg><g class="wordmark-text-0" data-fill-palette-color="primary" id="text-0"><path d="M28.05-6.85v5.2c-2.067 1.367-4.933 2.05-8.6 2.05v0c-5.033 0-9.15-1.567-12.35-4.7-3.2-3.133-4.8-7.333-4.8-12.6v0c0-5.1 1.61-9.25 4.83-12.45 3.213-3.2 7.287-4.8 12.22-4.8v0c3.6 0 6.483 0.617 8.65 1.85v0 5.05c-1.467-0.8-2.79-1.36-3.97-1.68-1.187-0.313-2.697-0.47-4.53-0.47v0c-3.367 0-6.173 1.14-8.42 3.42-2.253 2.287-3.38 5.313-3.38 9.08v0c0 3.833 1.117 6.883 3.35 9.15 2.233 2.267 5.183 3.4 8.85 3.4v0c3.233 0 5.95-0.833 8.15-2.5zM43.45-29.4v0h-4.4v12.3h4.65c2.133 0 3.75-0.56 4.85-1.68 1.1-1.113 1.65-2.603 1.65-4.47v0c0-4.1-2.25-6.15-6.75-6.15zM39.05-12.8v12.8h-5.15v-33.7h9.4c3.867 0 6.85 0.94 8.95 2.82 2.1 1.887 3.15 4.447 3.15 7.68v0c-0.033 2.367-0.633 4.373-1.8 6.02-1.167 1.653-2.783 2.847-4.85 3.58v0l8.8 13.6h-6.15l-7.9-12.8zM67.8-33.7v33.7h-5.1v-33.7zM95.75-33.7v4.3h-8.85v29.4h-5.15v-29.4h-8.8v-4.3zM120.75-33.7v4.3h-8.85v29.4h-5.15v-29.4h-8.8v-4.3zM144.95-4.3v4.3h-19.45v-33.7h19.2v4.3h-14.05v10.4h12.45v4.3h-12.45v10.4zM160.75-29.4v0h-4.4v12.3h4.65c2.133 0 3.75-0.56 4.85-1.68 1.1-1.113 1.65-2.603 1.65-4.47v0c0-4.1-2.25-6.15-6.75-6.15zM156.35-12.8v12.8h-5.15v-33.7h9.4c3.867 0 6.85 0.94 8.95 2.82 2.1 1.887 3.15 4.447 3.15 7.68v0c-0.033 2.367-0.633 4.373-1.8 6.02-1.167 1.653-2.783 2.847-4.85 3.58v0l8.8 13.6h-6.15l-7.9-12.8z" fill="#000000" fill-rule="nonzero" stroke="none" stroke-width="1" stroke-linecap="butt" stroke-linejoin="miter" stroke-miterlimit="10" stroke-dasharray="" stroke-dashoffset="0" font-family="none" font-weight="none" font-size="none" text-anchor="none" style="mix-blend-mode: normal" data-fill-palette-color="primary" opacity="1"></path><path transform="translate(28.3,37.55)" d="M23.9-33.7v4.3h-8.85v29.4h-5.15v-29.4h-8.8v-4.3zM38.2-29.4v0h-4.4v12.3h4.65c2.133 0 3.75-0.56 4.85-1.68 1.1-1.113 1.65-2.603 1.65-4.47v0c0-4.1-2.25-6.15-6.75-6.15zM33.8-12.8v12.8h-5.15v-33.7h9.4c3.867 0 6.85 0.94 8.95 2.82 2.1 1.887 3.15 4.447 3.15 7.68v0c-0.033 2.367-0.633 4.373-1.8 6.02-1.167 1.653-2.783 2.847-4.85 3.58v0l8.8 13.6h-6.15l-7.9-12.8zM65.05-14.25v0l-0.55 1.7h10.8l-0.55-1.7c-1.267-3.933-2.3-7.193-3.1-9.78-0.8-2.58-1.283-4.187-1.45-4.82v0l-0.25-0.95c-0.367 1.567-2 6.75-4.9 15.55zM63.1-8.25l-2.7 8.25h-5.45l11.65-33.7h6.75l11.5 33.7h-5.5l-2.65-8.25zM114.45-6.85v5.2c-2.067 1.367-4.933 2.05-8.6 2.05v0c-5.033 0-9.15-1.567-12.35-4.7-3.2-3.133-4.8-7.333-4.8-12.6v0c0-5.1 1.61-9.25 4.83-12.45 3.213-3.2 7.287-4.8 12.22-4.8v0c3.6 0 6.483 0.617 8.65 1.85v0 5.05c-1.467-0.8-2.79-1.36-3.97-1.68-1.187-0.313-2.697-0.47-4.53-0.47v0c-3.367 0-6.173 1.14-8.42 3.42-2.253 2.287-3.38 5.313-3.38 9.08v0c0 3.833 1.117 6.883 3.35 9.15 2.233 2.267 5.183 3.4 8.85 3.4v0c3.233 0 5.95-0.833 8.15-2.5zM132.25-16.7l13.1 16.7h-6.5l-12.75-16.65 12.25-17.05h6.25zM125.45-33.7v33.7h-5.15v-33.7z" fill="#000000" fill-rule="nonzero" stroke="none" stroke-width="1" stroke-linecap="butt" stroke-linejoin="miter" stroke-miterlimit="10" stroke-dasharray="" stroke-dashoffset="0" font-family="none" font-weight="none" font-size="none" text-anchor="none" style="mix-blend-mode: normal" data-fill-palette-color="primary" opacity="1"></path></g></svg></g></svg></g><g transform="matrix(1,0,0,1,54.01933056000004,117.9396197451932)"><svg viewBox="0 0 190.41202943999997 11.466766577183002" height="11.466766577183002" width="190.41202943999997"><g transform="matrix(1,0,0,1,0,0)"><svg width="190.41202943999997" viewBox="0.75 -35.5 597.71 36" height="11.466766577183002" data-palette-color="#ffffff"><path d="M4.3 0L0.75-35 6.05-35 8.5-8.1 8.6-8.1 11.2-35 17.2-35 19.8-8.1 19.9-8.1 22.35-35 27.1-35 23.55 0 16.7 0 14.2-23.6 14.1-23.6 11.6 0 4.3 0ZM29.9 0L29.9-35 44.9-35 44.9-30 35.4-30 35.4-20.75 42.95-20.75 42.95-15.75 35.4-15.75 35.4-5 44.9-5 44.9 0 29.9 0ZM56.04 0L56.04-35 64.19-35Q68.44-35 70.39-33.02 72.34-31.05 72.34-26.95L72.34-26.95 72.34-24.8Q72.34-19.35 68.74-17.9L68.74-17.9 68.74-17.8Q70.74-17.2 71.57-15.35 72.39-13.5 72.39-10.4L72.39-10.4 72.39-4.25Q72.39-2.75 72.49-1.83 72.59-0.9 72.99 0L72.99 0 67.39 0Q67.09-0.85 66.99-1.6 66.89-2.35 66.89-4.3L66.89-4.3 66.89-10.7Q66.89-13.1 66.12-14.05 65.34-15 63.44-15L63.44-15 61.54-15 61.54 0 56.04 0ZM61.54-20L63.54-20Q65.19-20 66.02-20.85 66.84-21.7 66.84-23.7L66.84-23.7 66.84-26.4Q66.84-28.3 66.17-29.15 65.49-30 64.04-30L64.04-30 61.54-30 61.54-20ZM76.19 0L76.19-35 91.19-35 91.19-30 81.69-30 81.69-20.75 89.24-20.75 89.24-15.75 81.69-15.75 81.69-5 91.19-5 91.19 0 76.19 0ZM94.34 0L94.34-35 102.19-35 105.69-9.95 105.79-9.95 109.29-35 117.14-35 117.14 0 111.94 0 111.94-26.5 111.84-26.5 107.84 0 103.24 0 99.24-26.5 99.14-26.5 99.14 0 94.34 0ZM121.24 0L121.24-35 136.24-35 136.24-30 126.74-30 126.74-20.75 134.29-20.75 134.29-15.75 126.74-15.75 126.74-5 136.24-5 136.24 0 121.24 0ZM139.38 0L139.38-35 147.23-35 150.73-9.95 150.83-9.95 154.33-35 162.18-35 162.18 0 156.98 0 156.98-26.5 156.88-26.5 152.88 0 148.28 0 144.28-26.5 144.18-26.5 144.18 0 139.38 0ZM166.28 0L166.28-35 174.58-35Q178.83-35 180.78-33.02 182.73-31.05 182.73-26.95L182.73-26.95 182.73-25.55Q182.73-22.85 181.86-21.15 180.98-19.45 179.18-18.7L179.18-18.7 179.18-18.6Q183.28-17.2 183.28-11.3L183.28-11.3 183.28-8.3Q183.28-4.25 181.16-2.13 179.03 0 174.93 0L174.93 0 166.28 0ZM171.78-20.75L173.93-20.75Q175.58-20.75 176.41-21.6 177.23-22.45 177.23-24.45L177.23-24.45 177.23-26.4Q177.23-28.3 176.56-29.15 175.88-30 174.43-30L174.43-30 171.78-30 171.78-20.75ZM171.78-5L174.93-5Q176.38-5 177.08-5.78 177.78-6.55 177.78-8.45L177.78-8.45 177.78-11.5Q177.78-13.9 176.96-14.83 176.13-15.75 174.23-15.75L174.23-15.75 171.78-15.75 171.78-5ZM186.48 0L186.48-35 201.48-35 201.48-30 191.98-30 191.98-20.75 199.53-20.75 199.53-15.75 191.98-15.75 191.98-5 201.48-5 201.48 0 186.48 0ZM204.63 0L204.63-35 212.78-35Q217.03-35 218.98-33.02 220.93-31.05 220.93-26.95L220.93-26.95 220.93-24.8Q220.93-19.35 217.33-17.9L217.33-17.9 217.33-17.8Q219.33-17.2 220.15-15.35 220.98-13.5 220.98-10.4L220.98-10.4 220.98-4.25Q220.98-2.75 221.08-1.83 221.18-0.9 221.58 0L221.58 0 215.98 0Q215.68-0.85 215.58-1.6 215.48-2.35 215.48-4.3L215.48-4.3 215.48-10.7Q215.48-13.1 214.7-14.05 213.93-15 212.03-15L212.03-15 210.13-15 210.13 0 204.63 0ZM210.13-20L212.13-20Q213.78-20 214.6-20.85 215.43-21.7 215.43-23.7L215.43-23.7 215.43-26.4Q215.43-28.3 214.75-29.15 214.08-30 212.63-30L212.63-30 210.13-30 210.13-20ZM232.77 0L232.77-35 238.27-35 238.27 0 232.77 0ZM246.67 0L246.67-30 240.92-30 240.92-35 257.92-35 257.92-30 252.17-30 252.17 0 246.67 0ZM275.71 0.5Q271.71 0.5 269.66-1.78 267.61-4.05 267.61-8.3L267.61-8.3 267.61-10.3 272.81-10.3 272.81-7.9Q272.81-4.5 275.66-4.5L275.66-4.5Q277.06-4.5 277.79-5.33 278.51-6.15 278.51-8L278.51-8Q278.51-10.2 277.51-11.88 276.51-13.55 273.81-15.9L273.81-15.9Q270.41-18.9 269.06-21.33 267.71-23.75 267.71-26.8L267.71-26.8Q267.71-30.95 269.81-33.23 271.91-35.5 275.91-35.5L275.91-35.5Q279.86-35.5 281.89-33.23 283.91-30.95 283.91-26.7L283.91-26.7 283.91-25.25 278.71-25.25 278.71-27.05Q278.71-28.85 278.01-29.68 277.31-30.5 275.96-30.5L275.96-30.5Q273.21-30.5 273.21-27.15L273.21-27.15Q273.21-25.25 274.24-23.6 275.26-21.95 277.96-19.6L277.96-19.6Q281.41-16.6 282.71-14.15 284.01-11.7 284.01-8.4L284.01-8.4Q284.01-4.1 281.89-1.8 279.76 0.5 275.71 0.5L275.71 0.5ZM295.11 0.5Q291.06 0.5 288.91-1.8 286.76-4.1 286.76-8.3L286.76-8.3 286.76-26.7Q286.76-30.9 288.91-33.2 291.06-35.5 295.11-35.5L295.11-35.5Q299.16-35.5 301.31-33.2 303.46-30.9 303.46-26.7L303.46-26.7 303.46-8.3Q303.46-4.1 301.31-1.8 299.16 0.5 295.11 0.5L295.11 0.5ZM295.11-4.5Q297.96-4.5 297.96-7.95L297.96-7.95 297.96-27.05Q297.96-30.5 295.11-30.5L295.11-30.5Q292.26-30.5 292.26-27.05L292.26-27.05 292.26-7.95Q292.26-4.5 295.11-4.5L295.11-4.5ZM320.21 0L320.21-14.9 313.56-35 319.41-35 323.16-22.15 323.26-22.15 327.01-35 332.36-35 325.71-14.9 325.71 0 320.21 0ZM341.9 0.5Q337.85 0.5 335.7-1.8 333.55-4.1 333.55-8.3L333.55-8.3 333.55-26.7Q333.55-30.9 335.7-33.2 337.85-35.5 341.9-35.5L341.9-35.5Q345.95-35.5 348.1-33.2 350.25-30.9 350.25-26.7L350.25-26.7 350.25-8.3Q350.25-4.1 348.1-1.8 345.95 0.5 341.9 0.5L341.9 0.5ZM341.9-4.5Q344.75-4.5 344.75-7.95L344.75-7.95 344.75-27.05Q344.75-30.5 341.9-30.5L341.9-30.5Q339.05-30.5 339.05-27.05L339.05-27.05 339.05-7.95Q339.05-4.5 341.9-4.5L341.9-4.5ZM361.95 0.5Q357.95 0.5 355.85-1.78 353.75-4.05 353.75-8.3L353.75-8.3 353.75-35 359.25-35 359.25-7.9Q359.25-6.1 359.98-5.3 360.7-4.5 362.05-4.5L362.05-4.5Q363.4-4.5 364.13-5.3 364.85-6.1 364.85-7.9L364.85-7.9 364.85-35 370.15-35 370.15-8.3Q370.15-4.05 368.05-1.78 365.95 0.5 361.95 0.5L361.95 0.5ZM382.05 0L382.05-35 390.45-35Q394.55-35 396.6-32.8 398.65-30.6 398.65-26.35L398.65-26.35 398.65-8.65Q398.65-4.4 396.6-2.2 394.55 0 390.45 0L390.45 0 382.05 0ZM387.55-5L390.35-5Q391.7-5 392.42-5.8 393.15-6.6 393.15-8.4L393.15-8.4 393.15-26.6Q393.15-28.4 392.42-29.2 391.7-30 390.35-30L390.35-30 387.55-30 387.55-5ZM410.29 0.5Q406.24 0.5 404.09-1.8 401.94-4.1 401.94-8.3L401.94-8.3 401.94-26.7Q401.94-30.9 404.09-33.2 406.24-35.5 410.29-35.5L410.29-35.5Q414.34-35.5 416.49-33.2 418.64-30.9 418.64-26.7L418.64-26.7 418.64-8.3Q418.64-4.1 416.49-1.8 414.34 0.5 410.29 0.5L410.29 0.5ZM410.29-4.5Q413.14-4.5 413.14-7.95L413.14-7.95 413.14-27.05Q413.14-30.5 410.29-30.5L410.29-30.5Q407.44-30.5 407.44-27.05L407.44-27.05 407.44-7.95Q407.44-4.5 410.29-4.5L410.29-4.5ZM422.34 0L422.34-35 429.24-35 434.59-14.05 434.69-14.05 434.69-35 439.59-35 439.59 0 433.94 0 427.34-25.55 427.24-25.55 427.24 0 422.34 0ZM444.84-23.7L443.54-35 449.14-35 447.79-23.7 444.84-23.7ZM457.39 0L457.39-30 451.64-30 451.64-35 468.64-35 468.64-30 462.89-30 462.89 0 457.39 0ZM479.28 0L479.28-35 484.78-35 484.78-20.75 490.68-20.75 490.68-35 496.18-35 496.18 0 490.68 0 490.68-15.75 484.78-15.75 484.78 0 479.28 0ZM498.83 0L504.53-35 511.98-35 517.68 0 512.18 0 511.18-6.95 511.18-6.85 504.93-6.85 503.93 0 498.83 0ZM505.58-11.6L510.53-11.6 508.08-28.9 507.98-28.9 505.58-11.6ZM522.78 0L517.48-35 523.03-35 526.63-7.85 526.73-7.85 530.33-35 535.38-35 530.08 0 522.78 0ZM538.02 0L538.02-35 553.02-35 553.02-30 543.52-30 543.52-20.75 551.07-20.75 551.07-15.75 543.52-15.75 543.52-5 553.02-5 553.02 0 538.02 0ZM568.47 0L568.47-30 562.72-30 562.72-35 579.72-35 579.72-30 573.97-30 573.97 0 568.47 0ZM590.11 0.5Q586.06 0.5 583.91-1.8 581.76-4.1 581.76-8.3L581.76-8.3 581.76-26.7Q581.76-30.9 583.91-33.2 586.06-35.5 590.11-35.5L590.11-35.5Q594.16-35.5 596.31-33.2 598.46-30.9 598.46-26.7L598.46-26.7 598.46-8.3Q598.46-4.1 596.31-1.8 594.16 0.5 590.11 0.5L590.11 0.5ZM590.11-4.5Q592.96-4.5 592.96-7.95L592.96-7.95 592.96-27.05Q592.96-30.5 590.11-30.5L590.11-30.5Q587.26-30.5 587.26-27.05L587.26-27.05 587.26-7.95Q587.26-4.5 590.11-4.5L590.11-4.5Z" opacity="1" transform="matrix(1,0,0,1,0,0)" fill="#000000" class="slogan-text-1" data-fill-palette-color="secondary" id="text-1"></path></svg></g></svg></g></svg></g></svg></g><g transform="matrix(1,0,0,1,255.9856123965986,0)"><svg viewBox="0 0 158.61150950400003 147.47685993453933" height="147.47685993453933" width="158.61150950400003"><g><svg xmlns="http://www.w3.org/2000/svg" viewBox="8.428433347588582 13.650000000000002 113.01156665241146 105.07806803112373" x="0" y="0" height="147.47685993453933" width="158.61150950400003" class="icon-icon-0" data-fill-palette-color="accent" id="icon-0"><g fill="#ffffff" data-fill-palette-color="accent"><path d="M69.627 38.443a3.917 3.917 0 0 1-2.381-1.2 40.425 40.425 0 0 1-6.024-8.053 8.712 8.712 0 0 1-0.988-3.6C55.9 27.163 50.7 35.906 49.266 38.144c-2.095 3.279-3.5 7.559-6.3 10.317a23.917 23.917 0 0 1-10.838 5.972 29.612 29.612 0 0 0 12.789-3.4 1.217 1.217 0 0 1 0.989-0.078 1.349 1.349 0 0 1 0.13-0.052c5.868-1.028 10.955 1.3 16.758 1.262 7.285-0.039 9.2-4.709 9.627-11.15C72.008 39.614 71.475 38.443 69.627 38.443Zm-4.15 0.664c-0.078 0.117-0.156 0.221-0.221 0.325-0.911 1.353-3.1 0.091-2.2-1.275 0.078-0.117 0.156-0.221 0.221-0.325C64.189 36.479 66.375 37.741 65.477 39.107Zm-4.242-4.333a1.269 1.269 0 1 1 1.288 2.186 0.738 0.738 0 0 0-0.3 0.416 1.283 1.283 0 0 1-1.743 0.456 1.308 1.308 0 0 1-0.456-1.744A3.372 3.372 0 0 1 61.235 34.774Zm-1.21 0.026a6.817 6.817 0 0 0-0.611 0.443c-1.2 1.106-3.005-0.69-1.8-1.8A10.34 10.34 0 0 1 58.75 32.6C60.117 31.691 61.378 33.89 60.025 34.8Zm-5.958-2.068a14.329 14.329 0 0 1 2.472-3.188 1.31 1.31 0 0 1 1.8 0 1.273 1.273 0 0 1 0 1.8 11.936 11.936 0 0 0-2.082 2.68 1.268 1.268 0 1 1-2.185-1.288Zm1.756 10.213a1.263 1.263 0 0 1-1.561-0.885 3.367 3.367 0 0 1 0.455-2.5c0.9-1.353 3.1-0.078 2.186 1.288a0.8 0.8 0 0 0-0.2 0.534A1.29 1.29 0 0 1 55.823 42.945Zm-7.7 5.386a1.28 1.28 0 0 1-1.73 0.456 1.3 1.3 0 0 1-0.456-1.744 9.954 9.954 0 0 1 1.822-3.187c1.2-1.106 2.992 0.689 1.8 1.8A8.708 8.708 0 0 0 48.121 48.331Zm3.7 0.325c-0.872 1.38-3.071 0.105-2.2-1.288a14.1 14.1 0 0 1 1.392-2.211c1.106-1.21 2.9 0.6 1.8 1.8A10.548 10.548 0 0 0 51.816 48.656Zm3.461 0.859a1.258 1.258 0 0 1-1.731 0.456 1.285 1.285 0 0 1-0.455-1.731 11.54 11.54 0 0 1 0.976-1.522c0.871-1.379 3.07-0.1 2.185 1.288A12.428 12.428 0 0 0 55.277 49.515Zm3.929-0.065a4.139 4.139 0 0 1-1.327 0.872 1.268 1.268 0 0 1-0.716-2.433c-0.13 0.039 0.234-0.221 0.247-0.234C58.568 46.51 60.364 48.305 59.206 49.45ZM57.84 44.116A3.456 3.456 0 0 1 58.4 41.41a1.272 1.272 0 0 1 2.2 1.275c-0.143 0.221-0.377 0.494-0.312 0.754C60.676 45.027 58.23 45.7 57.84 44.116Zm3.721 6.674a1.262 1.262 0 0 1 0-2.524A1.262 1.262 0 0 1 61.561 50.79Zm1.964-6.8a2.9 2.9 0 0 0-0.052 1.21 1.269 1.269 0 0 1-2.537 0 5.063 5.063 0 0 1 0.39-2.485C62.068 41.241 64.254 42.529 63.525 43.986Zm0.338 3.7c-0.143-2.368 1-4.5 1.887-6.623 0.625-1.483 3.083-0.832 2.446 0.677-0.794 1.886-1.926 3.838-1.8 5.946C66.505 49.32 63.968 49.307 63.863 47.681Zm6.05-1.522a3.376 3.376 0 0 0-0.3 0.884 1.27 1.27 0 0 1-2.446-0.676 5.591 5.591 0 0 1 0.56-1.5A1.269 1.269 0 0 1 69.913 46.159Z" fill="#000000" data-fill-palette-color="accent"></path><path d="M66.557 54.355a6.762 6.762 0 0 1 1.691 4.333 62.27 62.27 0 0 1 6.466-5.66c1.991-1.522 5.712-3.162 6.792-5.516 0.936-2.056-1.64-6.454-2.928-3.149-0.1 0.3-0.234 0.6-0.351 0.9A3.712 3.712 0 0 1 77.2 46.744c-0.95 0.794-2.069 0.364-2.979-0.221-0.677 2.836-1.965 5.5-4.593 6.8A12.524 12.524 0 0 1 66.557 54.355Z" fill="#000000" data-fill-palette-color="accent"></path><path d="M118.4 50.582a1.58 1.58 0 0 1 0.794 0.585 4.578 4.578 0 0 1 0.26 0.508 5.76 5.76 0 0 1 0.833-1.093 1.245 1.245 0 0 1 0.91-0.364c-0.065-1.223-0.143-2.446-0.26-3.669A10.47 10.47 0 0 1 118.4 50.582Z" fill="#000000" data-fill-palette-color="accent"></path><path d="M61.092 65.427a1.018 1.018 0 0 1 0.417 0.247 5.862 5.862 0 0 0 1.652-0.794c0.546-0.65 1.119-1.288 1.7-1.912a6.8 6.8 0 0 0 0.781-2.472c0.559-4.072-1.652-6.089-5.673-5.764-3.252 0.274-7.246 1.757-6.739 5.868 0.351 2.914 2.654 4.1 5.152 4.528a17.342 17.342 0 0 1-0.117-3.943 2.533 2.533 0 0 1-0.6-1.079 1.252 1.252 0 0 1 1.04-1.536 1.179 1.179 0 0 1 1.484-0.221 1.867 1.867 0 0 1 0.6 2.928A10.879 10.879 0 0 0 61.092 65.427Z" fill="#000000" data-fill-palette-color="accent"></path><path d="M47.249 53.288a14.2 14.2 0 0 1 5.295 2.043A8.233 8.233 0 0 1 54.691 53.6 25.6 25.6 0 0 0 47.249 53.288Z" fill="#000000" data-fill-palette-color="accent"></path><path d="M76.679 21.166a0.854 0.854 0 0 0-0.026-0.092c-0.1-1.886-0.221-2.9-1.731-4.15a1.065 1.065 0 0 1-0.416-0.741l-0.468 0.2a3.32 3.32 0 0 1 0.52 0.351 3.772 3.772 0 0 1 0.95 2.719A1.727 1.727 0 0 0 76.679 21.166Z" fill="#000000" data-fill-palette-color="accent"></path><path d="M52.219 65.1c-6.1 2.992-14.545 1.834-20.934 0.156-0.234-0.065-0.481-0.143-0.715-0.208a1.342 1.342 0 0 1-1.418 0.208 4.793 4.793 0 0 0-2.628-0.182 19.345 19.345 0 0 1 2.068 0.884c6.753 3.344 12.282 2.524 19.321 0.651 1.717-0.469 3.369-0.937 5.022-1.223-0.169-0.143-0.339-0.3-0.5-0.456C52.362 64.984 52.31 65.05 52.219 65.1Z" fill="#000000" data-fill-palette-color="accent"></path><path d="M78.682 26.018a0.634 0.634 0 0 1 0.091 0.039h0.013c0.013 0.013 0.026 0.013 0.039 0.026s0.026 0.013 0.039 0.026a0.263 0.263 0 0 1 0.079 0.052l0.013 0.014a0.993 0.993 0 0 1 0.208 0.143 0.714 0.714 0 0 1 0.117 0.091 0.4 0.4 0 0 1 0.091 0.065 2.764 2.764 0 0 1 0.494 0.533c0.612-0.182 0.664-0.1 1.965 0.143v-0.065c-0.1-0.065-0.208-0.117-0.312-0.182-0.026-0.013-0.039-0.026-0.065-0.039s-0.014 0-0.027-0.013-0.039-0.013-0.052-0.026a0.284 0.284 0 0 1-0.065-0.039c-0.026-0.013-0.039-0.013-0.052-0.026a0.045 0.045 0 0 1-0.026-0.013c-0.039-0.026-0.078-0.039-0.117-0.065l-0.013-0.013h-0.013c-0.026-0.013-0.039-0.026-0.065-0.039A0.04 0.04 0 0 1 81 26.617l-0.013-0.013a0.048 0.048 0 0 1-0.039-0.013 1.143 1.143 0 0 0-0.13-0.078 0.22 0.22 0 0 1-0.065-0.026 0.013 0.013 0 0 0-0.013-0.013 0.284 0.284 0 0 0-0.065-0.039c-0.026-0.013-0.039-0.026-0.065-0.039s-0.091-0.052-0.13-0.078-0.1-0.065-0.156-0.091a0.272 0.272 0 0 1-0.078-0.052 1.329 1.329 0 0 1-0.2-0.118 0.045 0.045 0 0 1-0.026-0.013 0.2 0.2 0 0 1-0.078-0.052 0.454 0.454 0 0 1-0.117-0.078c-0.013 0-0.013 0-0.013-0.013-0.052-0.026-0.091-0.052-0.117-0.065s-0.013-0.026-0.026-0.026a2.391 2.391 0 0 1-0.286-0.221c-0.013 0-0.013 0-0.013-0.013s-0.026 0-0.026-0.013l-0.026-0.026a0.013 0.013 0 0 1-0.013-0.013c-0.013-0.013-0.026-0.026-0.039-0.026a0.013 0.013 0 0 1-0.013-0.013l-0.013-0.013c-0.013-0.013-0.026-0.026-0.039-0.026a3.149 3.149 0 0 1-1-1.5 0.141 0.141 0 0 1-0.065-0.013c-0.013-0.013-0.013-0.013-0.013-0.026a1.29 1.29 0 0 1-0.2-0.039v-0.039h-0.195c0.078 0 0.117 0.286 0.156 0.429 0.1 0.312 0.169 0.624 0.247 0.937a0.1 0.1 0 0 0 0.013 0.052v0.013a0.048 0.048 0 0 0 0.013 0.039v0.039a0.048 0.048 0 0 0 0.013 0.039 0.563 0.563 0 0 0 0.013 0.065c0 0.013 0 0.013 0.013 0.026V25.5a0.045 0.045 0 0 0 0.013 0.026v0.039a0.045 0.045 0 0 0 0.013 0.026v0.026a0.262 0.262 0 0 0 0.039 0.143c0 0.013 0.013 0.039 0.013 0.052v0.026A2.249 2.249 0 0 1 78.682 26.018Z" fill="#000000" data-fill-palette-color="accent"></path><path d="M94.659 14.166a2.165 2.165 0 0 1 0.078 0.338c0.182 2.017 1.77 2.68 3.11 3.747A5.932 5.932 0 0 0 99.6 16.365a1 1 0 0 1 0.807-0.651A32.676 32.676 0 0 0 94.659 14.166Z" fill="#000000" data-fill-palette-color="accent"></path><path d="M99.33 23.612c-0.364-1.106-0.364-2.316-1.418-2.98a7.386 7.386 0 0 1-0.859 0.807A11.524 11.524 0 0 0 99.148 24.8a6.378 6.378 0 0 1 1.014 1.028c0.066-0.169 0.1-0.312 0.157-0.481A2.6 2.6 0 0 1 99.33 23.612Z" fill="#000000" data-fill-palette-color="accent"></path><path d="M101.307 21.231a0.912 0.912 0 0 1 0.117 0.078 3.937 3.937 0 0 1 1.262 1.782c0.4 0.013 0.781-0.26 1.171-0.846 0.339-0.455 0.677-0.923 0.989-1.405a11.033 11.033 0 0 1 1.132-1.314 1.185 1.185 0 0 1 0.273-0.2c0.039-0.221 0.091-0.442 0.143-0.65a30.618 30.618 0 0 0-4.9-2.537 1.3 1.3 0 0 1 0.3 1.5 4.775 4.775 0 0 1-1.418 1.73 4.291 4.291 0 0 1 0.871 1.587C101.268 21.022 101.281 21.127 101.307 21.231Z" fill="#000000" data-fill-palette-color="accent"></path><path d="M44.725 81.625A11.174 11.174 0 0 1 50.593 77.9a1.128 1.128 0 0 1 0.689 0A36.128 36.128 0 0 1 54 73.545c-5.79 0.807-9.29 4.775-10.851 10.721A16.048 16.048 0 0 1 44.725 81.625Z" fill="#000000" data-fill-palette-color="accent"></path><path d="M55.927 75.406a36.288 36.288 0 0 0-2.719 5.334c-1.145 2.745-3.331 7.9-0.846 10.526l3.123 0.741a15.823 15.823 0 0 1-2.576-7.026c-0.143-2.55 2.615-3.825 2.6-6.5A10.823 10.823 0 0 1 55.927 75.406Z" fill="#000000" data-fill-palette-color="accent"></path><path d="M118.1 65.323a1.894 1.894 0 0 1-1.926-0.117 18.262 18.262 0 0 1-2.146 0.546c-1.419 0.026-2.095-1.041-3.591 0-2.589 1.8-4.905-2.095-7.7-2.446a2.86 2.86 0 0 1 0.065 0.573 1.411 1.411 0 0 1 0.143 0.611c-0.182 5.464 5.061 5.074 8.964 4.072a15.689 15.689 0 0 1 6.57-0.637c0.377-0.755 0.742-1.509 1.067-2.264A1.3 1.3 0 0 1 118.1 65.323Z" fill="#000000" data-fill-palette-color="accent"></path><path d="M120.172 56.762c-1.47 0.442-2.12-1.431-2.615-2.9-1.626 1.379-2.927 2.654-5.308 3.07-1.665 0.3-3.057-0.442-4.462-1.158a1.428 1.428 0 0 1-0.885-0.429 0.326 0.326 0 0 1-0.091-0.052c-2.876-1.3-6-0.221-8.951-1.119-4.034-1.236-7.117-4.072-10.9-0.013-1.119 1.21-2.914-0.6-1.8-1.783 3.487-3.747 8.145-3.434 12.438-1.184 3.1 1.627 6.375 0.04 9.446 1.432 0.3 0.143 0.6 0.273 0.911 0.4a6.034 6.034 0 0 1 2.459-0.546c1.249-0.026 2.433 0.156 3.226-1.158 0.443-0.742 0.82-1.523 1.249-2.277a1.275 1.275 0 0 1 1.731-0.456c0.689 0.469 2.407-4.241 2.524-4.761a1.119 1.119 0 0 1 1.366-0.872c-0.13-0.872-0.287-1.743-0.456-2.6a10.75 10.75 0 0 1-1.444 1.9 20.4 20.4 0 0 1-3.031 3.227c-0.312 0.208-1.275 0.507-2.082 0.846a7.75 7.75 0 0 1-1.756 1.535 1.28 1.28 0 0 1-1.861-1.431 2.683 2.683 0 0 1 0.338-0.807 3.366 3.366 0 0 1 1.77-1.314 11.3 11.3 0 0 1 3.031-2.953c2.3-1.223 2.29-3.682 2.29-5.972a1.192 1.192 0 0 1 1.028-1.2c-0.312-0.872-0.664-1.73-1.041-2.576-0.078 0.156-0.156 0.312-0.247 0.468a6.044 6.044 0 0 1-2.238 3.552 8.007 8.007 0 0 1-1.34 0.82c-1.314 1.613-2.537 3.278-3.825 4.879-0.026 0.078-0.052 0.143-0.078 0.221a7.169 7.169 0 0 1-0.651 1.262v0.013a0.045 0.045 0 0 1-0.026 0.013 2.506 2.506 0 0 1 0.69 1.509 3.1 3.1 0 0 1-0.924 1.965c-0.663 0.793-2.914 0.741-3.786 0.832a73.119 73.119 0 0 1-7.429 0.221c-1.3 0-1.3-2.719 0-2.719h1.418c0.183 0 0.4-0.117 0.69-0.156 1.834-0.208 4.2-0.351 5.816-1.5a0.165 0.165 0 0 1-0.013-0.078l0.013-0.013a1.311 1.311 0 0 1-0.065-0.325 1.34 1.34 0 0 1 0.364-0.937c0.65-0.69 1.275-1.392 1.886-2.108a10.592 10.592 0 0 1 0.846-1.977 8.737 8.737 0 0 1 2.888-2.641 33.428 33.428 0 0 0 3.331-3.839 4.759 4.759 0 0 0 0.091-0.9 1.157 1.157 0 0 1 0.507-0.976 2.791 2.791 0 0 0-0.078-0.651 1.163 1.163 0 0 1-0.026-0.468 0.961 0.961 0 0 1 0.118-0.39c-0.391-0.638-0.807-1.249-1.25-1.861-1.262 1.184-2.354 2.55-3.642 3.682-0.092 0.807-0.144 1.613-0.209 2.3-0.026 0.234-0.052 0.455-0.078 0.651a1.068 1.068 0 0 1-1.145 0.9 1.517 1.517 0 0 1-0.676-0.156v0.937a13.5 13.5 0 0 1-0.286 2.784 1.283 1.283 0 0 1-2.264 0.442 0.5 0.5 0 0 0-0.013 0.131 1.284 1.284 0 0 1-1.223 0.923c-1.861 0.091-3.812 2.3-5.425 3.11a23.953 23.953 0 0 1-4.333 1.678 1.258 1.258 0 0 1-1.561-1.379 1.245 1.245 0 0 1 0.9-1.132c3.252-0.911 6.1-4.111 9.315-4.866v-0.3a3.828 3.828 0 0 0-0.247-1.236c-0.026-0.039-0.039-0.065-0.078-0.065s-0.078-0.065-0.143-0.143c-0.313-0.833-0.222-1.3 1.079-1.392v-0.091a1.253 1.253 0 0 1 1.809-1.119 16.893 16.893 0 0 1 0.195-2.68 1.173 1.173 0 0 1 1.08-0.963c0.3-0.026 0.82-0.065 0.82 0.1v-0.221h0.052c0.026 0 0.078 0.143 0.091 0.1a18.3 18.3 0 0 1 0.416-2.55c0.351-1.483 1.548-1 1.548-2.368a3.858 3.858 0 0 0-0.078-0.7 1.3 1.3 0 0 1 0.1-0.819c-0.468-0.43-0.962-0.833-1.47-1.223a13.525 13.525 0 0 0-0.286 1.743c-0.039 0.195-0.065 0.39-0.117 0.573a3.512 3.512 0 0 1-0.4 1.066 2.783 2.783 0 0 1-0.858 0.9 7.866 7.866 0 0 1-2.472 1.028 1.432 1.432 0 0 1-0.013 0.468 9.218 9.218 0 0 1-3.409 5.152c-0.442 0.352-1.509 0.807-2.446 1.328A26.2 26.2 0 0 0 96.754 35.2a1.286 1.286 0 0 1-2.329-0.3 3.5 3.5 0 0 1 1.912-4.085 0.729 0.729 0 0 0 0.144-0.065 4.815 4.815 0 0 1 1.73-1.483c0.078-0.039 0.143-0.078 0.208-0.1-0.52-0.82-0.429-1.73-1.132-2.576-1.2-1.431-1.743-3.422-3.083-4.632a1.065 1.065 0 0 1-0.313-0.468 1.156 1.156 0 0 1 0.261-1.314c0.234-0.182 0.546-0.378 0.858-0.573A6.128 6.128 0 0 1 92.916 17.8c-0.443-0.664-0.469-2.8-0.989-3.11a1.17 1.17 0 0 1-0.586-0.949c-0.78-0.065-1.561-0.091-2.341-0.091a1.486 1.486 0 0 1 0.429 2.055 2.3 2.3 0 0 1 0.546 0.989c0.482 1.73 2.277 2.459 3.318 3.812a3.453 3.453 0 0 1 0.533 1.015c0.391 1.093 0.43 2.342 1.158 3.4 0.573 0.819 1.379 1.9 1.08 2.992a3.387 3.387 0 0 1-1.756 1.938c-1.262 0.677-0.885 1.874-1.913 2.407-1.21 0.625-1.288 2.811-1.964 4.047-1.054 1.9-1.21 3.76-2.459 5.581a1.36 1.36 0 0 1-2.3-0.156 1.071 1.071 0 0 1 0.1-1.132c1.21-1.743 1.418-3.76 2.459-5.568 0.637-1.093 0.52-3.539 1.743-4.32 0.963-0.611 3.409-3.721 2.824-4.514-1.119-1.5-1.054-4.229-2.681-5.231a5.892 5.892 0 0 1-2.224-1.847c-0.859-1.47-2.16-2.784-2.928-4.333a1.211 1.211 0 0 1-0.442-0.858c-1.431 0.182-2.888 0.39-4.345 0.676 0.247 1.106 0.13 2.134 1.5 2.277a1.358 1.358 0 0 1 1.145 0.807 0.733 0.733 0 0 1 0.156 0.052c1.223 0.455 1.366 1.847 2.641 2.277a3.364 3.364 0 0 1 2.524 3.525 9.2 9.2 0 0 1 1.574 1.2c1.21 1.106-0.6 2.9-1.782 1.783a7.21 7.21 0 0 0-1.861-1.262 1.266 1.266 0 0 1-0.455-1.731c0.416-0.923-1.783-1.145-2.147-1.353a3.589 3.589 0 0 1-1.184-1.522 1.317 1.317 0 0 0-0.689-0.6A11.035 11.035 0 0 1 79.5 21.673a1.278 1.278 0 0 1 0.833 1.184c-0.026 1.392 2.3 1.938 3.278 2.485a1.268 1.268 0 0 1 0.586 1.431 3.805 3.805 0 0 0 0 2.576 1.272 1.272 0 0 1-2.29 1c-0.052-0.039-0.1-0.052-0.156-0.091-0.547-0.221-1.093-0.43-1.627-0.651a1.283 1.283 0 0 1-1.99-0.26c-0.221-0.39-0.338-1.132-0.859-1.158a1.308 1.308 0 0 1-1.223-0.937 8.268 8.268 0 0 1-0.247-0.806 3.8 3.8 0 0 1-1.288 0.273c-0.442 0-1.8-0.4-2.186-0.221-1.587 0.754-2.146-0.234-2.914-1.184a2.585 2.585 0 0 1-2.082-0.091 4.02 4.02 0 0 1-0.962 0.676 1.186 1.186 0 0 1-1.744-0.6c-0.195 0.312-0.377 0.637-0.572 0.963a1.144 1.144 0 0 1-0.963 0.6c0.143 0.312 0.312 0.69 0.494 1.054a1.25 1.25 0 0 1 0.521 0.065c0.429 0.13 1.249-0.416 1.8-0.325 1.288 0.221 2.459 0.767 3.786 0.4 2.186-0.585 2.941 1.353 4.736 1.353 2.186 0 4.97 1.132 4.905 3.292 1.86 1.08 3.435 1.847 3.448 4.137 0 1.3-2.537 1.3-2.55 0s-1.952-1.782-2.941-2.407a1.392 1.392 0 0 1-0.455-1.808c0.234-0.508-3.578-0.638-3.942-0.872-1.47-0.963-2.863-0.664-4.463-0.859-0.416-0.052-2.628-0.806-2.927-0.585a1.571 1.571 0 0 1-0.469 0.234c1.419 2.121 3.669 5.582 6.141 5.243 2.121-0.286 3.11 2.5 3.682 4.541a0.644 0.644 0 0 1 0.052 0.169c0.13 0.455 0.247 0.885 0.339 1.21a1.133 1.133 0 0 1-0.456 1.327c-0.026 0.312-0.065 0.638-0.117 0.976a1.045 1.045 0 0 1 0.638 0.2c0.676 0.455 1.457-1.939 2.055-2.706 0.742-0.963 2.225-1.132 3.318-1.236a3.239 3.239 0 0 1 3.148 1.808 7.155 7.155 0 0 1 0.9 3.383c-0.013 2.784-2.082 5.1-4.241 6.544-1.548 1.041-3.071 2.121-4.554 3.266A58.279 58.279 0 0 0 68.9 61.641a0.982 0.982 0 0 1-0.182 0.143 1.036 1.036 0 0 1-0.3 1.327 20.811 20.811 0 0 0-1.548 1.47 8.546 8.546 0 0 1-1.9 2.134c-0.988 1.2-1.912 2.446-2.9 3.708a33.43 33.43 0 0 0-3.031 3.916c-1.08 1.978-0.729 3.344-0.82 5.438A5.1 5.1 0 0 1 56.474 83.8c-2.563 2.432 1.092 6.687 2.354 8.951 3.11 0.663 6.245 1.236 9.381 1.587a21.914 21.914 0 0 1-2.589-2.563 30.277 30.277 0 0 1-2.524-3.9c-0.716-0.937-1.4-1.887-2.043-2.9-0.858-1.392 1.327-2.667 2.2-1.275 0.065 0.105 0.143 0.222 0.208 0.326 0.026 0.026 0.052 0.039 0.078 0.065a15.074 15.074 0 0 1 1.431 2.159 18.835 18.835 0 0 0 5.465 5.283c2.368 1.366 5.048 1.912 7.52 3.031a36.853 36.853 0 0 0 8.209-1.574c-2.107-0.781-3.981-1.991-6.115-3.006-2.485-1.183-6.284-2.354-7.194-5.373-0.677-2.251 0.884-8.209-0.5-9.966-0.013-0.026-0.039-0.039-0.052-0.052a1.083 1.083 0 0 0-0.286-0.26c-2.927-1.821-1.405-3.773-2.992-6.271-0.885-1.379 1.314-2.654 2.185-1.275 1.353 2.134 1.262 4.254 3.279 6.05a3.7 3.7 0 0 1 1.483 2.5 7.251 7.251 0 0 1 0.768 5.061c-1.015 5.894 10.59 9.3 14.923 10.46 1.652-0.7 3.278-1.431 4.853-2.186-1.041-0.195-2.082-0.416-3.136-0.585-1.939-0.325-4.5 0.325-6.362-0.3-2.121-0.7-3.318-2.381-4.788-3.851-1.665-1.666-0.065-3.643 0.755-5.152 2.914-5.361-1.9-8.991-5.139-12.582a1.317 1.317 0 0 1 0.936-2.185 1.11 1.11 0 0 1 0.846 0.4c2.134 2.342 5.048 5.061 6.336 8.145a1.134 1.134 0 0 1 0.377 0.4 5.686 5.686 0 0 1 1.08 3.9 16.211 16.211 0 0 0-0.546 2.9 4.968 4.968 0 0 0 3.76 4.268c1.8 0.247 3.682 0.026 5.438 0.572a36.992 36.992 0 0 0 5.23 1.548 48.914 48.914 0 0 0 4.242-2.745 5.374 5.374 0 0 1-1.418-0.39c-0.43-0.182-0.859-0.4-1.3-0.612a20.518 20.518 0 0 1-3.76 0.911c-1.575 0.143-2.668-0.169-3.448-1.626-0.664-1.275-2.537-2.472-2.537-4.02a6.056 6.056 0 0 1 0.754-2.68c2.381-5.1-3.994-3.865-5.49-3.578-1.6 0.286-2.277-2.147-0.677-2.459 4.372-0.807 10.734-0.117 8.978 5.945-0.4 1.419-1.405 1.991-0.339 3.084a1.063 1.063 0 0 1 0.469 0.208c1.275 0.924 3.63 0.4 5.165 1.028 0.442 0.182 0.846 0.364 1.249 0.546a10.658 10.658 0 0 1 1.392-0.247c1.483 0 2.966 0.091 4.45 0.208 0.013-0.013 0.026-0.026 0.039-0.026a1.291 1.291 0 0 1 1.092-0.26 32.42 32.42 0 0 0 3.149-3.708 6.7 6.7 0 0 0-2.771 0.221 4.123 4.123 0 0 1-2.537 0.5c-2.056-0.664-1.457-2.121-3.24-3.084-1.7-0.924-4.228-1.691-5.035-3.682-0.351-0.9 0.325-6.076 0.013-6.206-2.615-1.119-4.8 1.913-7.728 0.6-2.667-1.2-2.732-1.028-5.1-0.286a3.2 3.2 0 0 1-2.147-0.313c-1.314-0.767-0.976-1.951-2.485-1.548a3.846 3.846 0 0 1-2.446 0.091 4.165 4.165 0 0 1-2.979-3.695 1.351 1.351 0 0 1 0.455-1.223c0.677-0.585 1.848-0.546 2 0.547 0.546 3.9 3.526 0.351 5.035 1.717 1.431 1.288 2.316 1.405 4.176 1.145a5.977 5.977 0 0 1 1.926-0.169 5.986 5.986 0 0 1 2.355 1.171c1.509 1.171 3.226-0.443 4.592-0.82a4.563 4.563 0 0 1 3.123 0.39c0.065-0.026 0.091-0.065 0.156-0.091l0.156-0.039a0.956 0.956 0 0 1 0.82-0.611 9.491 9.491 0 0 1 3.63 0.169c1.86 0.4 3.174-0.221 4.97-0.416 3.512-0.378 7.35 0.78 10.031-2.186a1.069 1.069 0 0 1 1.131-0.351c0-0.157 0.026-0.313 0.026-0.469-0.013-0.351-0.026-0.715-0.039-1.067A2.98 2.98 0 0 1 120.172 56.762Z" fill="#000000" data-fill-palette-color="accent"></path><path d="M67.962 22.05c0.494 0.976 0.221 1.145 1.2 0.69a1.3 1.3 0 0 1 1.535 0.2c0.95 0.9 0.533 1.093 1.873 0.924 1.523-0.182 1.64 0.611 3.214-0.208a3.891 3.891 0 0 1-1.834-1.041 3.067 3.067 0 0 1-0.846-1.562c-0.807-0.936-2.056-0.845-3.149-1.2a1.331 1.331 0 0 1-0.7-0.521A18.979 18.979 0 0 0 67.207 21.5 1.014 1.014 0 0 1 67.962 22.05Z" fill="#000000" data-fill-palette-color="accent"></path><path d="M50.944 62.9a0.794 0.794 0 0 1 0.169-0.039 1.019 1.019 0 0 1-0.065-0.182 0.853 0.853 0 0 1-0.273 0.1C43.7 64.1 37.283 62.4 30.622 59.95c-0.533-0.2-1.106-0.43-1.678-0.677a1.16 1.16 0 0 1-0.781 0.312c-1.444 0-2.888 0.091-4.306 0.221C32.378 62.669 42.422 67.092 50.944 62.9Z" fill="#000000" data-fill-palette-color="accent"></path><path d="M41.186 55.955a1.175 1.175 0 0 1-1.118-0.273 24.431 24.431 0 0 1-11.463 0.9c6.87 2.758 14.156 5.113 21.507 3.76a1.314 1.314 0 0 1 0.6 0.026 8.3 8.3 0 0 1 0.533-2.862A12.943 12.943 0 0 0 41.186 55.955Z" fill="#000000" data-fill-palette-color="accent"></path><path d="M32.938 74.833A13.474 13.474 0 0 1 31.416 76.5c4.462 0.533 8.586 0.559 12.854-1.392a1.276 1.276 0 0 1 0.976-0.052 13.306 13.306 0 0 1 2.693-2.16C42.93 73.714 37.947 75.51 32.938 74.833Z" fill="#000000" data-fill-palette-color="accent"></path><path d="M19.615 66.559a12.86 12.86 0 0 0-1.457 0.52 32.469 32.469 0 0 1 8.275 3.006c5.62 2.628 10.33 2.42 16.289 1.105a34.623 34.623 0 0 1 11.137-1.131 1.273 1.273 0 0 1 1.1 0.832c0.391-0.013 0.794-0.026 1.21-0.026a22.331 22.331 0 0 1 2.576-2.446 1.073 1.073 0 0 1-0.494-0.39c-7.767-2.16-16.185 4.814-24.329 2.719C29.438 69.6 24.39 65.219 19.615 66.559Z" fill="#000000" data-fill-palette-color="accent"></path><path d="M26.586 83.83a32.993 32.993 0 0 0-6.029 0.063c-3.308 0.417-6.017 1.689-7.566 4.739-0.872 1.718 1.716 3.238 2.591 1.514 4.208-8.29 18.365 1.051 23.434-6.188A7.867 7.867 0 0 0 40.159 85.2a19.042 19.042 0 0 1 0.962-3.448 25.781 25.781 0 0 1 1.653-3.4 21.8 21.8 0 0 1-5.907 1.028c0.148 0.417 0.3 0.825 0.449 1.227v0c-0.738 2.5-4.315 3.553-6.536 3.533C29.384 84.137 27.98 83.913 26.586 83.83Z" fill="#000000" data-fill-palette-color="accent"></path><path d="M12.943 99.515c13.062 2.2 28.118 0.98 35.436-11.671a1.5 1.5 0 0 0-2.591-1.514C39.2 97.72 25.422 98.586 13.74 96.622 11.852 96.305 11.04 99.2 12.943 99.515Z" fill="#000000" data-fill-palette-color="accent"></path><path d="M40.608 107.387c1.329-1.115 3.017-1.429 4.2-2.776 1.781-2.037 2.267-5.071 2.5-7.66 0.174-1.922-2.828-1.91-3 0a11.65 11.65 0 0 1-1.245 4.89c-1.131 1.773-2.674 1.911-4.176 3a8.767 8.767 0 0 0-2.862 3.574c-1.559 3.548-0.407 7.253 2.231 9.892a1.5 1.5 0 0 0 2.121-2.121C37.778 113.584 37.715 109.814 40.608 107.387Z" fill="#000000" data-fill-palette-color="accent"></path><path d="M11.067 70.842c2.111-1.679 2.995-4.371 4.733-6.385a18.576 18.576 0 0 1 6.951-4.943c1.772-0.749 0.245-3.334-1.514-2.59A20.679 20.679 0 0 0 14.161 61.8c-1.961 2.09-3 5.153-5.216 6.918C7.435 69.922 9.57 72.032 11.067 70.842Z" fill="#000000" data-fill-palette-color="accent"></path></g></svg></g></svg></g></svg></g></svg></g><path d="M171.402 74.127L171.402 9.787 395.52 9.787 395.52 237.413 171.402 237.413 171.402 173.073 174.004 173.073 174.004 234.811 392.918 234.811 392.918 12.389 174.004 12.389 174.004 74.127Z" fill="#000000" stroke="transparent" data-fill-palette-color="tertiary"></path></svg></g><defs></defs></svg><rect width="395.52" height="247.2" fill="none" stroke="none" visibility="hidden"></rect></g></svg></g></svg>