<svg xmlns="http://www.w3.org/2000/svg" version="1.1" xmlns:xlink="http://www.w3.org/1999/xlink" xmlns:svgjs="http://svgjs.dev/svgjs" width="1500" height="1500" viewBox="0 0 1500 1500"><rect width="1500" height="1500" fill="#ffffff"></rect><g transform="matrix(0.6666666666666666,0,0,0.6666666666666666,249.59719310769276,159.81160593792174)"><svg viewBox="0 0 209 247" data-background-color="#0c0032" preserveAspectRatio="xMidYMid meet" height="1772" width="1500" xmlns="http://www.w3.org/2000/svg" xmlns:xlink="http://www.w3.org/1999/xlink"><g id="tight-bounds" transform="matrix(1,0,0,1,0.08418664049222002,-0.09999999999999432)"><svg viewBox="0 0 208.83162671901556 247.2" height="247.2" width="208.83162671901556"><g><svg viewBox="0 0 208.83162671901556 247.2" height="247.2" width="208.83162671901556"><g><svg viewBox="0 0 397.4975999999999 470.52933630695406" height="247.2" width="208.83162671901556"><g><rect width="397.4975999999999" height="5.816118349367852" x="0" y="253.86113639210828" fill="#000000" opacity="1" stroke-width="0" stroke="transparent" fill-opacity="1" class="rect-qz-0" data-fill-palette-color="primary" rx="1%" id="qz-0" data-palette-color="#ffffff"></rect></g><g><rect width="397.4975999999999" height="5.816118349367852" x="0" y="267.28997509405184" fill="#000000" opacity="1" stroke-width="0" stroke="transparent" fill-opacity="1" class="rect-qz-1" data-fill-palette-color="primary" rx="1%" id="qz-1" data-palette-color="#ffffff"></rect></g><g transform="matrix(1,0,0,1,0.9887999999999693,288.33153414857117)"><svg viewBox="0 0 395.52 182.1978021583829" height="182.1978021583829" width="395.52"><g id="textblocktransform"><svg viewBox="0 0 395.52 182.1978021583829" height="182.1978021583829" width="395.52" id="textblock"><g><svg viewBox="0 0 395.52 139.7966385789114" height="139.7966385789114" width="395.52"><g transform="matrix(1,0,0,1,0,0)"><svg width="395.52" viewBox="68.47 -35.800000000000004 219.54999999999998 74.60000000000001" height="139.7966385789114" data-palette-color="#ffffff"><svg></svg><svg></svg><g class="wordmark-text-0" data-fill-palette-color="primary" id="text-0"><path transform="translate(68.47,0)" d="M30.25-2.15h6.55v2.15h-36.8v-2.15h11.1c-2.633-1.567-4.707-3.7-6.22-6.4-1.52-2.7-2.28-5.75-2.28-9.15v0c0-5.133 1.777-9.433 5.33-12.9 3.547-3.467 8.03-5.2 13.45-5.2 5.413 0 9.937 2 13.57 6v0l-3.75 4.1c-1.667-1.6-3.24-2.717-4.72-3.35-1.487-0.633-3.23-0.95-5.23-0.95v0c-3.533 0-6.5 1.14-8.9 3.42-2.4 2.287-3.6 5.207-3.6 8.76 0 3.547 1.193 6.51 3.58 8.89 2.38 2.387 5.203 3.58 8.47 3.58v0c2.033 0 3.783-0.343 5.25-1.03 1.467-0.68 3-1.77 4.6-3.27v0l3.8 3.9c-1.467 1.6-2.867 2.8-4.2 3.6zM69.6-2.15h4.85v2.15h-10.8l-8.35-11.75h-7.75v11.75h-10.75v-2.15h4.85v-32.8h13c5.333 0 9.15 0.9 11.45 2.7 2.3 1.8 3.45 4.683 3.45 8.65v0c0 5.767-2.517 9.4-7.55 10.9v0zM54.9-17.1c3.333 0 5.6-0.517 6.8-1.55 1.2-1.033 1.8-2.693 1.8-4.98 0-2.28-0.617-3.847-1.85-4.7-1.233-0.847-3.433-1.27-6.6-1.27v0h-7.5v12.5zM73.2-2.15h4.85v-32.8h5.9v32.8h4.85v2.15h-15.6zM106.85-2.15h12.15v2.15h-30.2v-2.15h12.15v-27.4h-10.6v-5.4h27.1v5.4h-10.6zM137.05-2.15h12.15v2.15h-30.2v-2.15h12.15v-27.4h-10.6v-5.4h27.1v5.4h-10.6zM149.2-2.15h4.85v-32.8h24.55v5.55h-18.65v9.25h16.75v5.25h-16.75v9.35h19.25v3.4h4.85v2.15h-34.85zM214.7-2.15h4.85v2.15h-10.8l-8.35-11.75h-7.75v11.75h-10.75v-2.15h4.85v-32.8h13c5.333 0 9.15 0.9 11.45 2.7 2.3 1.8 3.45 4.683 3.45 8.65v0c0 5.767-2.517 9.4-7.55 10.9v0zM200-17.1c3.333 0 5.6-0.517 6.8-1.55 1.2-1.033 1.8-2.693 1.8-4.98 0-2.28-0.617-3.847-1.85-4.7-1.233-0.847-3.433-1.27-6.6-1.27v0h-7.5v12.5z" fill="#000000" fill-rule="nonzero" stroke="none" stroke-width="1" stroke-linecap="butt" stroke-linejoin="miter" stroke-miterlimit="10" stroke-dasharray="" stroke-dashoffset="0" font-family="none" font-weight="none" font-size="none" text-anchor="none" style="mix-blend-mode: normal" data-fill-palette-color="primary" opacity="1"></path><path transform="translate(89.13,38.8)" d="M18.05-2.15h12.15v2.15h-30.2v-2.15h12.15v-27.4h-10.6v-5.4h27.1v5.4h-10.6zM63-2.15h4.85v2.15h-10.8l-8.35-11.75h-7.75v11.75h-10.75v-2.15h4.85v-32.8h13c5.333 0 9.15 0.9 11.45 2.7 2.3 1.8 3.45 4.683 3.45 8.65v0c0 5.767-2.517 9.4-7.55 10.9v0zM48.3-17.1c3.333 0 5.6-0.517 6.8-1.55 1.2-1.033 1.8-2.693 1.8-4.98 0-2.28-0.617-3.847-1.85-4.7-1.233-0.847-3.433-1.27-6.6-1.27v0h-7.5v12.5zM102.75-2.15h5.8v2.15h-11.15l-3.5-7.95h-17.5l-3.5 7.95h-11.15v-2.15h5.8l14.45-32.8h6.3zM78.8-13.4h12.7l-6.35-14.4zM133.95-2.15h6.55v2.15h-36.8v-2.15h11.1c-2.633-1.567-4.71-3.7-6.23-6.4-1.513-2.7-2.27-5.75-2.27-9.15v0c0-5.133 1.773-9.433 5.32-12.9 3.553-3.467 8.037-5.2 13.45-5.2 5.42 0 9.947 2 13.58 6v0l-3.75 4.1c-1.667-1.6-3.243-2.717-4.73-3.35-1.48-0.633-3.22-0.95-5.22-0.95v0c-3.533 0-6.5 1.14-8.9 3.42-2.4 2.287-3.6 5.207-3.6 8.76 0 3.547 1.19 6.51 3.57 8.89 2.387 2.387 5.213 3.58 8.48 3.58v0c2.033 0 3.783-0.343 5.25-1.03 1.467-0.68 3-1.77 4.6-3.27v0l3.8 3.9c-1.467 1.6-2.867 2.8-4.2 3.6zM140.5-2.15h4.85v-32.8h5.9v17.05l16-17.05h7.5l-14.05 15.3 12.7 17.55v-0.05h4.85v2.15h-10.3l-11.6-15.3-5.1 5.5v9.8h-10.75z" fill="#000000" fill-rule="nonzero" stroke="none" stroke-width="1" stroke-linecap="butt" stroke-linejoin="miter" stroke-miterlimit="10" stroke-dasharray="" stroke-dashoffset="0" font-family="none" font-weight="none" font-size="none" text-anchor="none" style="mix-blend-mode: normal" data-fill-palette-color="primary" opacity="1"></path></g></svg></g></svg></g><g transform="matrix(1,0,0,1,0,155.02207928406284)"><svg viewBox="0 0 395.52 27.175722874320066" height="27.175722874320066" width="395.52"><g transform="matrix(1,0,0,1,0,0)"><svg width="395.52" viewBox="0.75 -35.5 523.87 36" height="27.175722874320066" data-palette-color="#ffffff"><path d="M4.3 0L0.75-35 6.05-35 8.5-8.1 8.6-8.1 11.2-35 17.2-35 19.8-8.1 19.9-8.1 22.35-35 27.1-35 23.55 0 16.7 0 14.2-23.6 14.1-23.6 11.6 0 4.3 0ZM29.9 0L29.9-35 44.9-35 44.9-30 35.4-30 35.4-20.75 42.95-20.75 42.95-15.75 35.4-15.75 35.4-5 44.9-5 44.9 0 29.9 0ZM63.19 0.5Q59.19 0.5 57.14-1.78 55.09-4.05 55.09-8.3L55.09-8.3 55.09-10.3 60.29-10.3 60.29-7.9Q60.29-4.5 63.14-4.5L63.14-4.5Q64.54-4.5 65.27-5.33 65.99-6.15 65.99-8L65.99-8Q65.99-10.2 64.99-11.88 63.99-13.55 61.29-15.9L61.29-15.9Q57.89-18.9 56.54-21.33 55.19-23.75 55.19-26.8L55.19-26.8Q55.19-30.95 57.29-33.23 59.39-35.5 63.39-35.5L63.39-35.5Q67.34-35.5 69.37-33.23 71.39-30.95 71.39-26.7L71.39-26.7 71.39-25.25 66.19-25.25 66.19-27.05Q66.19-28.85 65.49-29.68 64.79-30.5 63.44-30.5L63.44-30.5Q60.69-30.5 60.69-27.15L60.69-27.15Q60.69-25.25 61.72-23.6 62.74-21.95 65.44-19.6L65.44-19.6Q68.89-16.6 70.19-14.15 71.49-11.7 71.49-8.4L71.49-8.4Q71.49-4.1 69.37-1.8 67.24 0.5 63.19 0.5L63.19 0.5ZM78.94 0L78.94-30 73.19-30 73.19-35 90.19-35 90.19-30 84.44-30 84.44 0 78.94 0ZM100.59 0.5Q96.54 0.5 94.39-1.8 92.24-4.1 92.24-8.3L92.24-8.3 92.24-26.7Q92.24-30.9 94.39-33.2 96.54-35.5 100.59-35.5L100.59-35.5Q104.64-35.5 106.79-33.2 108.94-30.9 108.94-26.7L108.94-26.7 108.94-8.3Q108.94-4.1 106.79-1.8 104.64 0.5 100.59 0.5L100.59 0.5ZM100.59-4.5Q103.44-4.5 103.44-7.95L103.44-7.95 103.44-27.05Q103.44-30.5 100.59-30.5L100.59-30.5Q97.74-30.5 97.74-27.05L97.74-27.05 97.74-7.95Q97.74-4.5 100.59-4.5L100.59-4.5ZM112.64 0L112.64-35 120.79-35Q125.04-35 126.99-33.02 128.94-31.05 128.94-26.95L128.94-26.95 128.94-24.8Q128.94-19.35 125.34-17.9L125.34-17.9 125.34-17.8Q127.34-17.2 128.16-15.35 128.99-13.5 128.99-10.4L128.99-10.4 128.99-4.25Q128.99-2.75 129.09-1.83 129.19-0.9 129.59 0L129.59 0 123.99 0Q123.69-0.85 123.59-1.6 123.49-2.35 123.49-4.3L123.49-4.3 123.49-10.7Q123.49-13.1 122.71-14.05 121.94-15 120.04-15L120.04-15 118.14-15 118.14 0 112.64 0ZM118.14-20L120.14-20Q121.79-20 122.61-20.85 123.44-21.7 123.44-23.7L123.44-23.7 123.44-26.4Q123.44-28.3 122.76-29.15 122.09-30 120.64-30L120.64-30 118.14-30 118.14-20ZM132.78 0L132.78-35 147.78-35 147.78-30 138.28-30 138.28-20.75 145.83-20.75 145.83-15.75 138.28-15.75 138.28-5 147.78-5 147.78 0 132.78 0ZM158.93 0L158.93-35 164.43-35 164.43 0 158.93 0ZM172.83 0L172.83-30 167.08-30 167.08-35 184.08-35 184.08-30 178.33-30 178.33 0 172.83 0ZM201.87 0.5Q197.87 0.5 195.82-1.78 193.77-4.05 193.77-8.3L193.77-8.3 193.77-10.3 198.97-10.3 198.97-7.9Q198.97-4.5 201.82-4.5L201.82-4.5Q203.22-4.5 203.95-5.33 204.67-6.15 204.67-8L204.67-8Q204.67-10.2 203.67-11.88 202.67-13.55 199.97-15.9L199.97-15.9Q196.57-18.9 195.22-21.33 193.87-23.75 193.87-26.8L193.87-26.8Q193.87-30.95 195.97-33.23 198.07-35.5 202.07-35.5L202.07-35.5Q206.02-35.5 208.05-33.23 210.07-30.95 210.07-26.7L210.07-26.7 210.07-25.25 204.87-25.25 204.87-27.05Q204.87-28.85 204.17-29.68 203.47-30.5 202.12-30.5L202.12-30.5Q199.37-30.5 199.37-27.15L199.37-27.15Q199.37-25.25 200.4-23.6 201.42-21.95 204.12-19.6L204.12-19.6Q207.57-16.6 208.87-14.15 210.17-11.7 210.17-8.4L210.17-8.4Q210.17-4.1 208.05-1.8 205.92 0.5 201.87 0.5L201.87 0.5ZM221.27 0.5Q217.22 0.5 215.07-1.8 212.92-4.1 212.92-8.3L212.92-8.3 212.92-26.7Q212.92-30.9 215.07-33.2 217.22-35.5 221.27-35.5L221.27-35.5Q225.32-35.5 227.47-33.2 229.62-30.9 229.62-26.7L229.62-26.7 229.62-8.3Q229.62-4.1 227.47-1.8 225.32 0.5 221.27 0.5L221.27 0.5ZM221.27-4.5Q224.12-4.5 224.12-7.95L224.12-7.95 224.12-27.05Q224.12-30.5 221.27-30.5L221.27-30.5Q218.42-30.5 218.42-27.05L218.42-27.05 218.42-7.95Q218.42-4.5 221.27-4.5L221.27-4.5ZM246.36 0L246.36-14.9 239.71-35 245.56-35 249.31-22.15 249.41-22.15 253.16-35 258.51-35 251.86-14.9 251.86 0 246.36 0ZM268.06 0.5Q264.01 0.5 261.86-1.8 259.71-4.1 259.71-8.3L259.71-8.3 259.71-26.7Q259.71-30.9 261.86-33.2 264.01-35.5 268.06-35.5L268.06-35.5Q272.11-35.5 274.26-33.2 276.41-30.9 276.41-26.7L276.41-26.7 276.41-8.3Q276.41-4.1 274.26-1.8 272.11 0.5 268.06 0.5L268.06 0.5ZM268.06-4.5Q270.91-4.5 270.91-7.95L270.91-7.95 270.91-27.05Q270.91-30.5 268.06-30.5L268.06-30.5Q265.21-30.5 265.21-27.05L265.21-27.05 265.21-7.95Q265.21-4.5 268.06-4.5L268.06-4.5ZM288.11 0.5Q284.11 0.5 282.01-1.78 279.91-4.05 279.91-8.3L279.91-8.3 279.91-35 285.41-35 285.41-7.9Q285.41-6.1 286.13-5.3 286.86-4.5 288.21-4.5L288.21-4.5Q289.56-4.5 290.28-5.3 291.01-6.1 291.01-7.9L291.01-7.9 291.01-35 296.31-35 296.31-8.3Q296.31-4.05 294.21-1.78 292.11 0.5 288.11 0.5L288.11 0.5ZM308.2 0L308.2-35 316.6-35Q320.7-35 322.75-32.8 324.8-30.6 324.8-26.35L324.8-26.35 324.8-8.65Q324.8-4.4 322.75-2.2 320.7 0 316.6 0L316.6 0 308.2 0ZM313.7-5L316.5-5Q317.85-5 318.58-5.8 319.3-6.6 319.3-8.4L319.3-8.4 319.3-26.6Q319.3-28.4 318.58-29.2 317.85-30 316.5-30L316.5-30 313.7-30 313.7-5ZM336.45 0.5Q332.4 0.5 330.25-1.8 328.1-4.1 328.1-8.3L328.1-8.3 328.1-26.7Q328.1-30.9 330.25-33.2 332.4-35.5 336.45-35.5L336.45-35.5Q340.5-35.5 342.65-33.2 344.8-30.9 344.8-26.7L344.8-26.7 344.8-8.3Q344.8-4.1 342.65-1.8 340.5 0.5 336.45 0.5L336.45 0.5ZM336.45-4.5Q339.3-4.5 339.3-7.95L339.3-7.95 339.3-27.05Q339.3-30.5 336.45-30.5L336.45-30.5Q333.6-30.5 333.6-27.05L333.6-27.05 333.6-7.95Q333.6-4.5 336.45-4.5L336.45-4.5ZM348.5 0L348.5-35 355.4-35 360.75-14.05 360.85-14.05 360.85-35 365.75-35 365.75 0 360.1 0 353.5-25.55 353.4-25.55 353.4 0 348.5 0ZM371-23.7L369.7-35 375.3-35 373.95-23.7 371-23.7ZM383.54 0L383.54-30 377.79-30 377.79-35 394.79-35 394.79-30 389.04-30 389.04 0 383.54 0ZM405.44 0L405.44-35 410.94-35 410.94-20.75 416.84-20.75 416.84-35 422.34-35 422.34 0 416.84 0 416.84-15.75 410.94-15.75 410.94 0 405.44 0ZM424.99 0L430.69-35 438.14-35 443.84 0 438.34 0 437.34-6.95 437.34-6.85 431.09-6.85 430.09 0 424.99 0ZM431.74-11.6L436.69-11.6 434.24-28.9 434.14-28.9 431.74-11.6ZM448.93 0L443.63-35 449.18-35 452.78-7.85 452.88-7.85 456.48-35 461.53-35 456.23 0 448.93 0ZM464.18 0L464.18-35 479.18-35 479.18-30 469.68-30 469.68-20.75 477.23-20.75 477.23-15.75 469.68-15.75 469.68-5 479.18-5 479.18 0 464.18 0ZM494.63 0L494.63-30 488.88-30 488.88-35 505.88-35 505.88-30 500.13-30 500.13 0 494.63 0ZM516.27 0.5Q512.22 0.5 510.07-1.8 507.92-4.1 507.92-8.3L507.92-8.3 507.92-26.7Q507.92-30.9 510.07-33.2 512.22-35.5 516.27-35.5L516.27-35.5Q520.32-35.5 522.47-33.2 524.62-30.9 524.62-26.7L524.62-26.7 524.62-8.3Q524.62-4.1 522.47-1.8 520.32 0.5 516.27 0.5L516.27 0.5ZM516.27-4.5Q519.12-4.5 519.12-7.95L519.12-7.95 519.12-27.05Q519.12-30.5 516.27-30.5L516.27-30.5Q513.42-30.5 513.42-27.05L513.42-27.05 513.42-7.95Q513.42-4.5 516.27-4.5L516.27-4.5Z" opacity="1" transform="matrix(1,0,0,1,0,0)" fill="#000000" class="slogan-text-1" data-fill-palette-color="secondary" id="text-1"></path></svg></g></svg></g></svg></g></svg></g><g transform="matrix(1,0,0,1,70.42233599999997,0)"><svg viewBox="0 0 256.652928 238.63569568695684" height="238.63569568695684" width="256.652928"><g><svg xmlns="http://www.w3.org/2000/svg" viewBox="8.428433347588582 13.650000000000002 113.01156665241146 105.07806803112373" x="0" y="0" height="238.63569568695684" width="256.652928" class="icon-icon-0" data-fill-palette-color="accent" id="icon-0"><g fill="#ffffff" data-fill-palette-color="accent"><path d="M69.627 38.443a3.917 3.917 0 0 1-2.381-1.2 40.425 40.425 0 0 1-6.024-8.053 8.712 8.712 0 0 1-0.988-3.6C55.9 27.163 50.7 35.906 49.266 38.144c-2.095 3.279-3.5 7.559-6.3 10.317a23.917 23.917 0 0 1-10.838 5.972 29.612 29.612 0 0 0 12.789-3.4 1.217 1.217 0 0 1 0.989-0.078 1.349 1.349 0 0 1 0.13-0.052c5.868-1.028 10.955 1.3 16.758 1.262 7.285-0.039 9.2-4.709 9.627-11.15C72.008 39.614 71.475 38.443 69.627 38.443Zm-4.15 0.664c-0.078 0.117-0.156 0.221-0.221 0.325-0.911 1.353-3.1 0.091-2.2-1.275 0.078-0.117 0.156-0.221 0.221-0.325C64.189 36.479 66.375 37.741 65.477 39.107Zm-4.242-4.333a1.269 1.269 0 1 1 1.288 2.186 0.738 0.738 0 0 0-0.3 0.416 1.283 1.283 0 0 1-1.743 0.456 1.308 1.308 0 0 1-0.456-1.744A3.372 3.372 0 0 1 61.235 34.774Zm-1.21 0.026a6.817 6.817 0 0 0-0.611 0.443c-1.2 1.106-3.005-0.69-1.8-1.8A10.34 10.34 0 0 1 58.75 32.6C60.117 31.691 61.378 33.89 60.025 34.8Zm-5.958-2.068a14.329 14.329 0 0 1 2.472-3.188 1.31 1.31 0 0 1 1.8 0 1.273 1.273 0 0 1 0 1.8 11.936 11.936 0 0 0-2.082 2.68 1.268 1.268 0 1 1-2.185-1.288Zm1.756 10.213a1.263 1.263 0 0 1-1.561-0.885 3.367 3.367 0 0 1 0.455-2.5c0.9-1.353 3.1-0.078 2.186 1.288a0.8 0.8 0 0 0-0.2 0.534A1.29 1.29 0 0 1 55.823 42.945Zm-7.7 5.386a1.28 1.28 0 0 1-1.73 0.456 1.3 1.3 0 0 1-0.456-1.744 9.954 9.954 0 0 1 1.822-3.187c1.2-1.106 2.992 0.689 1.8 1.8A8.708 8.708 0 0 0 48.121 48.331Zm3.7 0.325c-0.872 1.38-3.071 0.105-2.2-1.288a14.1 14.1 0 0 1 1.392-2.211c1.106-1.21 2.9 0.6 1.8 1.8A10.548 10.548 0 0 0 51.816 48.656Zm3.461 0.859a1.258 1.258 0 0 1-1.731 0.456 1.285 1.285 0 0 1-0.455-1.731 11.54 11.54 0 0 1 0.976-1.522c0.871-1.379 3.07-0.1 2.185 1.288A12.428 12.428 0 0 0 55.277 49.515Zm3.929-0.065a4.139 4.139 0 0 1-1.327 0.872 1.268 1.268 0 0 1-0.716-2.433c-0.13 0.039 0.234-0.221 0.247-0.234C58.568 46.51 60.364 48.305 59.206 49.45ZM57.84 44.116A3.456 3.456 0 0 1 58.4 41.41a1.272 1.272 0 0 1 2.2 1.275c-0.143 0.221-0.377 0.494-0.312 0.754C60.676 45.027 58.23 45.7 57.84 44.116Zm3.721 6.674a1.262 1.262 0 0 1 0-2.524A1.262 1.262 0 0 1 61.561 50.79Zm1.964-6.8a2.9 2.9 0 0 0-0.052 1.21 1.269 1.269 0 0 1-2.537 0 5.063 5.063 0 0 1 0.39-2.485C62.068 41.241 64.254 42.529 63.525 43.986Zm0.338 3.7c-0.143-2.368 1-4.5 1.887-6.623 0.625-1.483 3.083-0.832 2.446 0.677-0.794 1.886-1.926 3.838-1.8 5.946C66.505 49.32 63.968 49.307 63.863 47.681Zm6.05-1.522a3.376 3.376 0 0 0-0.3 0.884 1.27 1.27 0 0 1-2.446-0.676 5.591 5.591 0 0 1 0.56-1.5A1.269 1.269 0 0 1 69.913 46.159Z" fill="#000000" data-fill-palette-color="accent"></path><path d="M66.557 54.355a6.762 6.762 0 0 1 1.691 4.333 62.27 62.27 0 0 1 6.466-5.66c1.991-1.522 5.712-3.162 6.792-5.516 0.936-2.056-1.64-6.454-2.928-3.149-0.1 0.3-0.234 0.6-0.351 0.9A3.712 3.712 0 0 1 77.2 46.744c-0.95 0.794-2.069 0.364-2.979-0.221-0.677 2.836-1.965 5.5-4.593 6.8A12.524 12.524 0 0 1 66.557 54.355Z" fill="#000000" data-fill-palette-color="accent"></path><path d="M118.4 50.582a1.58 1.58 0 0 1 0.794 0.585 4.578 4.578 0 0 1 0.26 0.508 5.76 5.76 0 0 1 0.833-1.093 1.245 1.245 0 0 1 0.91-0.364c-0.065-1.223-0.143-2.446-0.26-3.669A10.47 10.47 0 0 1 118.4 50.582Z" fill="#000000" data-fill-palette-color="accent"></path><path d="M61.092 65.427a1.018 1.018 0 0 1 0.417 0.247 5.862 5.862 0 0 0 1.652-0.794c0.546-0.65 1.119-1.288 1.7-1.912a6.8 6.8 0 0 0 0.781-2.472c0.559-4.072-1.652-6.089-5.673-5.764-3.252 0.274-7.246 1.757-6.739 5.868 0.351 2.914 2.654 4.1 5.152 4.528a17.342 17.342 0 0 1-0.117-3.943 2.533 2.533 0 0 1-0.6-1.079 1.252 1.252 0 0 1 1.04-1.536 1.179 1.179 0 0 1 1.484-0.221 1.867 1.867 0 0 1 0.6 2.928A10.879 10.879 0 0 0 61.092 65.427Z" fill="#000000" data-fill-palette-color="accent"></path><path d="M47.249 53.288a14.2 14.2 0 0 1 5.295 2.043A8.233 8.233 0 0 1 54.691 53.6 25.6 25.6 0 0 0 47.249 53.288Z" fill="#000000" data-fill-palette-color="accent"></path><path d="M76.679 21.166a0.854 0.854 0 0 0-0.026-0.092c-0.1-1.886-0.221-2.9-1.731-4.15a1.065 1.065 0 0 1-0.416-0.741l-0.468 0.2a3.32 3.32 0 0 1 0.52 0.351 3.772 3.772 0 0 1 0.95 2.719A1.727 1.727 0 0 0 76.679 21.166Z" fill="#000000" data-fill-palette-color="accent"></path><path d="M52.219 65.1c-6.1 2.992-14.545 1.834-20.934 0.156-0.234-0.065-0.481-0.143-0.715-0.208a1.342 1.342 0 0 1-1.418 0.208 4.793 4.793 0 0 0-2.628-0.182 19.345 19.345 0 0 1 2.068 0.884c6.753 3.344 12.282 2.524 19.321 0.651 1.717-0.469 3.369-0.937 5.022-1.223-0.169-0.143-0.339-0.3-0.5-0.456C52.362 64.984 52.31 65.05 52.219 65.1Z" fill="#000000" data-fill-palette-color="accent"></path><path d="M78.682 26.018a0.634 0.634 0 0 1 0.091 0.039h0.013c0.013 0.013 0.026 0.013 0.039 0.026s0.026 0.013 0.039 0.026a0.263 0.263 0 0 1 0.079 0.052l0.013 0.014a0.993 0.993 0 0 1 0.208 0.143 0.714 0.714 0 0 1 0.117 0.091 0.4 0.4 0 0 1 0.091 0.065 2.764 2.764 0 0 1 0.494 0.533c0.612-0.182 0.664-0.1 1.965 0.143v-0.065c-0.1-0.065-0.208-0.117-0.312-0.182-0.026-0.013-0.039-0.026-0.065-0.039s-0.014 0-0.027-0.013-0.039-0.013-0.052-0.026a0.284 0.284 0 0 1-0.065-0.039c-0.026-0.013-0.039-0.013-0.052-0.026a0.045 0.045 0 0 1-0.026-0.013c-0.039-0.026-0.078-0.039-0.117-0.065l-0.013-0.013h-0.013c-0.026-0.013-0.039-0.026-0.065-0.039A0.04 0.04 0 0 1 81 26.617l-0.013-0.013a0.048 0.048 0 0 1-0.039-0.013 1.143 1.143 0 0 0-0.13-0.078 0.22 0.22 0 0 1-0.065-0.026 0.013 0.013 0 0 0-0.013-0.013 0.284 0.284 0 0 0-0.065-0.039c-0.026-0.013-0.039-0.026-0.065-0.039s-0.091-0.052-0.13-0.078-0.1-0.065-0.156-0.091a0.272 0.272 0 0 1-0.078-0.052 1.329 1.329 0 0 1-0.2-0.118 0.045 0.045 0 0 1-0.026-0.013 0.2 0.2 0 0 1-0.078-0.052 0.454 0.454 0 0 1-0.117-0.078c-0.013 0-0.013 0-0.013-0.013-0.052-0.026-0.091-0.052-0.117-0.065s-0.013-0.026-0.026-0.026a2.391 2.391 0 0 1-0.286-0.221c-0.013 0-0.013 0-0.013-0.013s-0.026 0-0.026-0.013l-0.026-0.026a0.013 0.013 0 0 1-0.013-0.013c-0.013-0.013-0.026-0.026-0.039-0.026a0.013 0.013 0 0 1-0.013-0.013l-0.013-0.013c-0.013-0.013-0.026-0.026-0.039-0.026a3.149 3.149 0 0 1-1-1.5 0.141 0.141 0 0 1-0.065-0.013c-0.013-0.013-0.013-0.013-0.013-0.026a1.29 1.29 0 0 1-0.2-0.039v-0.039h-0.195c0.078 0 0.117 0.286 0.156 0.429 0.1 0.312 0.169 0.624 0.247 0.937a0.1 0.1 0 0 0 0.013 0.052v0.013a0.048 0.048 0 0 0 0.013 0.039v0.039a0.048 0.048 0 0 0 0.013 0.039 0.563 0.563 0 0 0 0.013 0.065c0 0.013 0 0.013 0.013 0.026V25.5a0.045 0.045 0 0 0 0.013 0.026v0.039a0.045 0.045 0 0 0 0.013 0.026v0.026a0.262 0.262 0 0 0 0.039 0.143c0 0.013 0.013 0.039 0.013 0.052v0.026A2.249 2.249 0 0 1 78.682 26.018Z" fill="#000000" data-fill-palette-color="accent"></path><path d="M94.659 14.166a2.165 2.165 0 0 1 0.078 0.338c0.182 2.017 1.77 2.68 3.11 3.747A5.932 5.932 0 0 0 99.6 16.365a1 1 0 0 1 0.807-0.651A32.676 32.676 0 0 0 94.659 14.166Z" fill="#000000" data-fill-palette-color="accent"></path><path d="M99.33 23.612c-0.364-1.106-0.364-2.316-1.418-2.98a7.386 7.386 0 0 1-0.859 0.807A11.524 11.524 0 0 0 99.148 24.8a6.378 6.378 0 0 1 1.014 1.028c0.066-0.169 0.1-0.312 0.157-0.481A2.6 2.6 0 0 1 99.33 23.612Z" fill="#000000" data-fill-palette-color="accent"></path><path d="M101.307 21.231a0.912 0.912 0 0 1 0.117 0.078 3.937 3.937 0 0 1 1.262 1.782c0.4 0.013 0.781-0.26 1.171-0.846 0.339-0.455 0.677-0.923 0.989-1.405a11.033 11.033 0 0 1 1.132-1.314 1.185 1.185 0 0 1 0.273-0.2c0.039-0.221 0.091-0.442 0.143-0.65a30.618 30.618 0 0 0-4.9-2.537 1.3 1.3 0 0 1 0.3 1.5 4.775 4.775 0 0 1-1.418 1.73 4.291 4.291 0 0 1 0.871 1.587C101.268 21.022 101.281 21.127 101.307 21.231Z" fill="#000000" data-fill-palette-color="accent"></path><path d="M44.725 81.625A11.174 11.174 0 0 1 50.593 77.9a1.128 1.128 0 0 1 0.689 0A36.128 36.128 0 0 1 54 73.545c-5.79 0.807-9.29 4.775-10.851 10.721A16.048 16.048 0 0 1 44.725 81.625Z" fill="#000000" data-fill-palette-color="accent"></path><path d="M55.927 75.406a36.288 36.288 0 0 0-2.719 5.334c-1.145 2.745-3.331 7.9-0.846 10.526l3.123 0.741a15.823 15.823 0 0 1-2.576-7.026c-0.143-2.55 2.615-3.825 2.6-6.5A10.823 10.823 0 0 1 55.927 75.406Z" fill="#000000" data-fill-palette-color="accent"></path><path d="M118.1 65.323a1.894 1.894 0 0 1-1.926-0.117 18.262 18.262 0 0 1-2.146 0.546c-1.419 0.026-2.095-1.041-3.591 0-2.589 1.8-4.905-2.095-7.7-2.446a2.86 2.86 0 0 1 0.065 0.573 1.411 1.411 0 0 1 0.143 0.611c-0.182 5.464 5.061 5.074 8.964 4.072a15.689 15.689 0 0 1 6.57-0.637c0.377-0.755 0.742-1.509 1.067-2.264A1.3 1.3 0 0 1 118.1 65.323Z" fill="#000000" data-fill-palette-color="accent"></path><path d="M120.172 56.762c-1.47 0.442-2.12-1.431-2.615-2.9-1.626 1.379-2.927 2.654-5.308 3.07-1.665 0.3-3.057-0.442-4.462-1.158a1.428 1.428 0 0 1-0.885-0.429 0.326 0.326 0 0 1-0.091-0.052c-2.876-1.3-6-0.221-8.951-1.119-4.034-1.236-7.117-4.072-10.9-0.013-1.119 1.21-2.914-0.6-1.8-1.783 3.487-3.747 8.145-3.434 12.438-1.184 3.1 1.627 6.375 0.04 9.446 1.432 0.3 0.143 0.6 0.273 0.911 0.4a6.034 6.034 0 0 1 2.459-0.546c1.249-0.026 2.433 0.156 3.226-1.158 0.443-0.742 0.82-1.523 1.249-2.277a1.275 1.275 0 0 1 1.731-0.456c0.689 0.469 2.407-4.241 2.524-4.761a1.119 1.119 0 0 1 1.366-0.872c-0.13-0.872-0.287-1.743-0.456-2.6a10.75 10.75 0 0 1-1.444 1.9 20.4 20.4 0 0 1-3.031 3.227c-0.312 0.208-1.275 0.507-2.082 0.846a7.75 7.75 0 0 1-1.756 1.535 1.28 1.28 0 0 1-1.861-1.431 2.683 2.683 0 0 1 0.338-0.807 3.366 3.366 0 0 1 1.77-1.314 11.3 11.3 0 0 1 3.031-2.953c2.3-1.223 2.29-3.682 2.29-5.972a1.192 1.192 0 0 1 1.028-1.2c-0.312-0.872-0.664-1.73-1.041-2.576-0.078 0.156-0.156 0.312-0.247 0.468a6.044 6.044 0 0 1-2.238 3.552 8.007 8.007 0 0 1-1.34 0.82c-1.314 1.613-2.537 3.278-3.825 4.879-0.026 0.078-0.052 0.143-0.078 0.221a7.169 7.169 0 0 1-0.651 1.262v0.013a0.045 0.045 0 0 1-0.026 0.013 2.506 2.506 0 0 1 0.69 1.509 3.1 3.1 0 0 1-0.924 1.965c-0.663 0.793-2.914 0.741-3.786 0.832a73.119 73.119 0 0 1-7.429 0.221c-1.3 0-1.3-2.719 0-2.719h1.418c0.183 0 0.4-0.117 0.69-0.156 1.834-0.208 4.2-0.351 5.816-1.5a0.165 0.165 0 0 1-0.013-0.078l0.013-0.013a1.311 1.311 0 0 1-0.065-0.325 1.34 1.34 0 0 1 0.364-0.937c0.65-0.69 1.275-1.392 1.886-2.108a10.592 10.592 0 0 1 0.846-1.977 8.737 8.737 0 0 1 2.888-2.641 33.428 33.428 0 0 0 3.331-3.839 4.759 4.759 0 0 0 0.091-0.9 1.157 1.157 0 0 1 0.507-0.976 2.791 2.791 0 0 0-0.078-0.651 1.163 1.163 0 0 1-0.026-0.468 0.961 0.961 0 0 1 0.118-0.39c-0.391-0.638-0.807-1.249-1.25-1.861-1.262 1.184-2.354 2.55-3.642 3.682-0.092 0.807-0.144 1.613-0.209 2.3-0.026 0.234-0.052 0.455-0.078 0.651a1.068 1.068 0 0 1-1.145 0.9 1.517 1.517 0 0 1-0.676-0.156v0.937a13.5 13.5 0 0 1-0.286 2.784 1.283 1.283 0 0 1-2.264 0.442 0.5 0.5 0 0 0-0.013 0.131 1.284 1.284 0 0 1-1.223 0.923c-1.861 0.091-3.812 2.3-5.425 3.11a23.953 23.953 0 0 1-4.333 1.678 1.258 1.258 0 0 1-1.561-1.379 1.245 1.245 0 0 1 0.9-1.132c3.252-0.911 6.1-4.111 9.315-4.866v-0.3a3.828 3.828 0 0 0-0.247-1.236c-0.026-0.039-0.039-0.065-0.078-0.065s-0.078-0.065-0.143-0.143c-0.313-0.833-0.222-1.3 1.079-1.392v-0.091a1.253 1.253 0 0 1 1.809-1.119 16.893 16.893 0 0 1 0.195-2.68 1.173 1.173 0 0 1 1.08-0.963c0.3-0.026 0.82-0.065 0.82 0.1v-0.221h0.052c0.026 0 0.078 0.143 0.091 0.1a18.3 18.3 0 0 1 0.416-2.55c0.351-1.483 1.548-1 1.548-2.368a3.858 3.858 0 0 0-0.078-0.7 1.3 1.3 0 0 1 0.1-0.819c-0.468-0.43-0.962-0.833-1.47-1.223a13.525 13.525 0 0 0-0.286 1.743c-0.039 0.195-0.065 0.39-0.117 0.573a3.512 3.512 0 0 1-0.4 1.066 2.783 2.783 0 0 1-0.858 0.9 7.866 7.866 0 0 1-2.472 1.028 1.432 1.432 0 0 1-0.013 0.468 9.218 9.218 0 0 1-3.409 5.152c-0.442 0.352-1.509 0.807-2.446 1.328A26.2 26.2 0 0 0 96.754 35.2a1.286 1.286 0 0 1-2.329-0.3 3.5 3.5 0 0 1 1.912-4.085 0.729 0.729 0 0 0 0.144-0.065 4.815 4.815 0 0 1 1.73-1.483c0.078-0.039 0.143-0.078 0.208-0.1-0.52-0.82-0.429-1.73-1.132-2.576-1.2-1.431-1.743-3.422-3.083-4.632a1.065 1.065 0 0 1-0.313-0.468 1.156 1.156 0 0 1 0.261-1.314c0.234-0.182 0.546-0.378 0.858-0.573A6.128 6.128 0 0 1 92.916 17.8c-0.443-0.664-0.469-2.8-0.989-3.11a1.17 1.17 0 0 1-0.586-0.949c-0.78-0.065-1.561-0.091-2.341-0.091a1.486 1.486 0 0 1 0.429 2.055 2.3 2.3 0 0 1 0.546 0.989c0.482 1.73 2.277 2.459 3.318 3.812a3.453 3.453 0 0 1 0.533 1.015c0.391 1.093 0.43 2.342 1.158 3.4 0.573 0.819 1.379 1.9 1.08 2.992a3.387 3.387 0 0 1-1.756 1.938c-1.262 0.677-0.885 1.874-1.913 2.407-1.21 0.625-1.288 2.811-1.964 4.047-1.054 1.9-1.21 3.76-2.459 5.581a1.36 1.36 0 0 1-2.3-0.156 1.071 1.071 0 0 1 0.1-1.132c1.21-1.743 1.418-3.76 2.459-5.568 0.637-1.093 0.52-3.539 1.743-4.32 0.963-0.611 3.409-3.721 2.824-4.514-1.119-1.5-1.054-4.229-2.681-5.231a5.892 5.892 0 0 1-2.224-1.847c-0.859-1.47-2.16-2.784-2.928-4.333a1.211 1.211 0 0 1-0.442-0.858c-1.431 0.182-2.888 0.39-4.345 0.676 0.247 1.106 0.13 2.134 1.5 2.277a1.358 1.358 0 0 1 1.145 0.807 0.733 0.733 0 0 1 0.156 0.052c1.223 0.455 1.366 1.847 2.641 2.277a3.364 3.364 0 0 1 2.524 3.525 9.2 9.2 0 0 1 1.574 1.2c1.21 1.106-0.6 2.9-1.782 1.783a7.21 7.21 0 0 0-1.861-1.262 1.266 1.266 0 0 1-0.455-1.731c0.416-0.923-1.783-1.145-2.147-1.353a3.589 3.589 0 0 1-1.184-1.522 1.317 1.317 0 0 0-0.689-0.6A11.035 11.035 0 0 1 79.5 21.673a1.278 1.278 0 0 1 0.833 1.184c-0.026 1.392 2.3 1.938 3.278 2.485a1.268 1.268 0 0 1 0.586 1.431 3.805 3.805 0 0 0 0 2.576 1.272 1.272 0 0 1-2.29 1c-0.052-0.039-0.1-0.052-0.156-0.091-0.547-0.221-1.093-0.43-1.627-0.651a1.283 1.283 0 0 1-1.99-0.26c-0.221-0.39-0.338-1.132-0.859-1.158a1.308 1.308 0 0 1-1.223-0.937 8.268 8.268 0 0 1-0.247-0.806 3.8 3.8 0 0 1-1.288 0.273c-0.442 0-1.8-0.4-2.186-0.221-1.587 0.754-2.146-0.234-2.914-1.184a2.585 2.585 0 0 1-2.082-0.091 4.02 4.02 0 0 1-0.962 0.676 1.186 1.186 0 0 1-1.744-0.6c-0.195 0.312-0.377 0.637-0.572 0.963a1.144 1.144 0 0 1-0.963 0.6c0.143 0.312 0.312 0.69 0.494 1.054a1.25 1.25 0 0 1 0.521 0.065c0.429 0.13 1.249-0.416 1.8-0.325 1.288 0.221 2.459 0.767 3.786 0.4 2.186-0.585 2.941 1.353 4.736 1.353 2.186 0 4.97 1.132 4.905 3.292 1.86 1.08 3.435 1.847 3.448 4.137 0 1.3-2.537 1.3-2.55 0s-1.952-1.782-2.941-2.407a1.392 1.392 0 0 1-0.455-1.808c0.234-0.508-3.578-0.638-3.942-0.872-1.47-0.963-2.863-0.664-4.463-0.859-0.416-0.052-2.628-0.806-2.927-0.585a1.571 1.571 0 0 1-0.469 0.234c1.419 2.121 3.669 5.582 6.141 5.243 2.121-0.286 3.11 2.5 3.682 4.541a0.644 0.644 0 0 1 0.052 0.169c0.13 0.455 0.247 0.885 0.339 1.21a1.133 1.133 0 0 1-0.456 1.327c-0.026 0.312-0.065 0.638-0.117 0.976a1.045 1.045 0 0 1 0.638 0.2c0.676 0.455 1.457-1.939 2.055-2.706 0.742-0.963 2.225-1.132 3.318-1.236a3.239 3.239 0 0 1 3.148 1.808 7.155 7.155 0 0 1 0.9 3.383c-0.013 2.784-2.082 5.1-4.241 6.544-1.548 1.041-3.071 2.121-4.554 3.266A58.279 58.279 0 0 0 68.9 61.641a0.982 0.982 0 0 1-0.182 0.143 1.036 1.036 0 0 1-0.3 1.327 20.811 20.811 0 0 0-1.548 1.47 8.546 8.546 0 0 1-1.9 2.134c-0.988 1.2-1.912 2.446-2.9 3.708a33.43 33.43 0 0 0-3.031 3.916c-1.08 1.978-0.729 3.344-0.82 5.438A5.1 5.1 0 0 1 56.474 83.8c-2.563 2.432 1.092 6.687 2.354 8.951 3.11 0.663 6.245 1.236 9.381 1.587a21.914 21.914 0 0 1-2.589-2.563 30.277 30.277 0 0 1-2.524-3.9c-0.716-0.937-1.4-1.887-2.043-2.9-0.858-1.392 1.327-2.667 2.2-1.275 0.065 0.105 0.143 0.222 0.208 0.326 0.026 0.026 0.052 0.039 0.078 0.065a15.074 15.074 0 0 1 1.431 2.159 18.835 18.835 0 0 0 5.465 5.283c2.368 1.366 5.048 1.912 7.52 3.031a36.853 36.853 0 0 0 8.209-1.574c-2.107-0.781-3.981-1.991-6.115-3.006-2.485-1.183-6.284-2.354-7.194-5.373-0.677-2.251 0.884-8.209-0.5-9.966-0.013-0.026-0.039-0.039-0.052-0.052a1.083 1.083 0 0 0-0.286-0.26c-2.927-1.821-1.405-3.773-2.992-6.271-0.885-1.379 1.314-2.654 2.185-1.275 1.353 2.134 1.262 4.254 3.279 6.05a3.7 3.7 0 0 1 1.483 2.5 7.251 7.251 0 0 1 0.768 5.061c-1.015 5.894 10.59 9.3 14.923 10.46 1.652-0.7 3.278-1.431 4.853-2.186-1.041-0.195-2.082-0.416-3.136-0.585-1.939-0.325-4.5 0.325-6.362-0.3-2.121-0.7-3.318-2.381-4.788-3.851-1.665-1.666-0.065-3.643 0.755-5.152 2.914-5.361-1.9-8.991-5.139-12.582a1.317 1.317 0 0 1 0.936-2.185 1.11 1.11 0 0 1 0.846 0.4c2.134 2.342 5.048 5.061 6.336 8.145a1.134 1.134 0 0 1 0.377 0.4 5.686 5.686 0 0 1 1.08 3.9 16.211 16.211 0 0 0-0.546 2.9 4.968 4.968 0 0 0 3.76 4.268c1.8 0.247 3.682 0.026 5.438 0.572a36.992 36.992 0 0 0 5.23 1.548 48.914 48.914 0 0 0 4.242-2.745 5.374 5.374 0 0 1-1.418-0.39c-0.43-0.182-0.859-0.4-1.3-0.612a20.518 20.518 0 0 1-3.76 0.911c-1.575 0.143-2.668-0.169-3.448-1.626-0.664-1.275-2.537-2.472-2.537-4.02a6.056 6.056 0 0 1 0.754-2.68c2.381-5.1-3.994-3.865-5.49-3.578-1.6 0.286-2.277-2.147-0.677-2.459 4.372-0.807 10.734-0.117 8.978 5.945-0.4 1.419-1.405 1.991-0.339 3.084a1.063 1.063 0 0 1 0.469 0.208c1.275 0.924 3.63 0.4 5.165 1.028 0.442 0.182 0.846 0.364 1.249 0.546a10.658 10.658 0 0 1 1.392-0.247c1.483 0 2.966 0.091 4.45 0.208 0.013-0.013 0.026-0.026 0.039-0.026a1.291 1.291 0 0 1 1.092-0.26 32.42 32.42 0 0 0 3.149-3.708 6.7 6.7 0 0 0-2.771 0.221 4.123 4.123 0 0 1-2.537 0.5c-2.056-0.664-1.457-2.121-3.24-3.084-1.7-0.924-4.228-1.691-5.035-3.682-0.351-0.9 0.325-6.076 0.013-6.206-2.615-1.119-4.8 1.913-7.728 0.6-2.667-1.2-2.732-1.028-5.1-0.286a3.2 3.2 0 0 1-2.147-0.313c-1.314-0.767-0.976-1.951-2.485-1.548a3.846 3.846 0 0 1-2.446 0.091 4.165 4.165 0 0 1-2.979-3.695 1.351 1.351 0 0 1 0.455-1.223c0.677-0.585 1.848-0.546 2 0.547 0.546 3.9 3.526 0.351 5.035 1.717 1.431 1.288 2.316 1.405 4.176 1.145a5.977 5.977 0 0 1 1.926-0.169 5.986 5.986 0 0 1 2.355 1.171c1.509 1.171 3.226-0.443 4.592-0.82a4.563 4.563 0 0 1 3.123 0.39c0.065-0.026 0.091-0.065 0.156-0.091l0.156-0.039a0.956 0.956 0 0 1 0.82-0.611 9.491 9.491 0 0 1 3.63 0.169c1.86 0.4 3.174-0.221 4.97-0.416 3.512-0.378 7.35 0.78 10.031-2.186a1.069 1.069 0 0 1 1.131-0.351c0-0.157 0.026-0.313 0.026-0.469-0.013-0.351-0.026-0.715-0.039-1.067A2.98 2.98 0 0 1 120.172 56.762Z" fill="#000000" data-fill-palette-color="accent"></path><path d="M67.962 22.05c0.494 0.976 0.221 1.145 1.2 0.69a1.3 1.3 0 0 1 1.535 0.2c0.95 0.9 0.533 1.093 1.873 0.924 1.523-0.182 1.64 0.611 3.214-0.208a3.891 3.891 0 0 1-1.834-1.041 3.067 3.067 0 0 1-0.846-1.562c-0.807-0.936-2.056-0.845-3.149-1.2a1.331 1.331 0 0 1-0.7-0.521A18.979 18.979 0 0 0 67.207 21.5 1.014 1.014 0 0 1 67.962 22.05Z" fill="#000000" data-fill-palette-color="accent"></path><path d="M50.944 62.9a0.794 0.794 0 0 1 0.169-0.039 1.019 1.019 0 0 1-0.065-0.182 0.853 0.853 0 0 1-0.273 0.1C43.7 64.1 37.283 62.4 30.622 59.95c-0.533-0.2-1.106-0.43-1.678-0.677a1.16 1.16 0 0 1-0.781 0.312c-1.444 0-2.888 0.091-4.306 0.221C32.378 62.669 42.422 67.092 50.944 62.9Z" fill="#000000" data-fill-palette-color="accent"></path><path d="M41.186 55.955a1.175 1.175 0 0 1-1.118-0.273 24.431 24.431 0 0 1-11.463 0.9c6.87 2.758 14.156 5.113 21.507 3.76a1.314 1.314 0 0 1 0.6 0.026 8.3 8.3 0 0 1 0.533-2.862A12.943 12.943 0 0 0 41.186 55.955Z" fill="#000000" data-fill-palette-color="accent"></path><path d="M32.938 74.833A13.474 13.474 0 0 1 31.416 76.5c4.462 0.533 8.586 0.559 12.854-1.392a1.276 1.276 0 0 1 0.976-0.052 13.306 13.306 0 0 1 2.693-2.16C42.93 73.714 37.947 75.51 32.938 74.833Z" fill="#000000" data-fill-palette-color="accent"></path><path d="M19.615 66.559a12.86 12.86 0 0 0-1.457 0.52 32.469 32.469 0 0 1 8.275 3.006c5.62 2.628 10.33 2.42 16.289 1.105a34.623 34.623 0 0 1 11.137-1.131 1.273 1.273 0 0 1 1.1 0.832c0.391-0.013 0.794-0.026 1.21-0.026a22.331 22.331 0 0 1 2.576-2.446 1.073 1.073 0 0 1-0.494-0.39c-7.767-2.16-16.185 4.814-24.329 2.719C29.438 69.6 24.39 65.219 19.615 66.559Z" fill="#000000" data-fill-palette-color="accent"></path><path d="M26.586 83.83a32.993 32.993 0 0 0-6.029 0.063c-3.308 0.417-6.017 1.689-7.566 4.739-0.872 1.718 1.716 3.238 2.591 1.514 4.208-8.29 18.365 1.051 23.434-6.188A7.867 7.867 0 0 0 40.159 85.2a19.042 19.042 0 0 1 0.962-3.448 25.781 25.781 0 0 1 1.653-3.4 21.8 21.8 0 0 1-5.907 1.028c0.148 0.417 0.3 0.825 0.449 1.227v0c-0.738 2.5-4.315 3.553-6.536 3.533C29.384 84.137 27.98 83.913 26.586 83.83Z" fill="#000000" data-fill-palette-color="accent"></path><path d="M12.943 99.515c13.062 2.2 28.118 0.98 35.436-11.671a1.5 1.5 0 0 0-2.591-1.514C39.2 97.72 25.422 98.586 13.74 96.622 11.852 96.305 11.04 99.2 12.943 99.515Z" fill="#000000" data-fill-palette-color="accent"></path><path d="M40.608 107.387c1.329-1.115 3.017-1.429 4.2-2.776 1.781-2.037 2.267-5.071 2.5-7.66 0.174-1.922-2.828-1.91-3 0a11.65 11.65 0 0 1-1.245 4.89c-1.131 1.773-2.674 1.911-4.176 3a8.767 8.767 0 0 0-2.862 3.574c-1.559 3.548-0.407 7.253 2.231 9.892a1.5 1.5 0 0 0 2.121-2.121C37.778 113.584 37.715 109.814 40.608 107.387Z" fill="#000000" data-fill-palette-color="accent"></path><path d="M11.067 70.842c2.111-1.679 2.995-4.371 4.733-6.385a18.576 18.576 0 0 1 6.951-4.943c1.772-0.749 0.245-3.334-1.514-2.59A20.679 20.679 0 0 0 14.161 61.8c-1.961 2.09-3 5.153-5.216 6.918C7.435 69.922 9.57 72.032 11.067 70.842Z" fill="#000000" data-fill-palette-color="accent"></path></g></svg></g></svg></g><g></g></svg></g></svg></g><defs></defs></svg><rect width="208.83162671901556" height="247.2" fill="none" stroke="none" visibility="hidden"></rect></g></svg></g></svg>